<svg width="174" height="50" viewBox="0 0 174 50" fill="none" xmlns="http://www.w3.org/2000/svg">
<g id="Group 4">
<g id="php">
<path id="Vector" d="M7.579 11.123H21.783C25.952 11.158 28.973 12.36 30.846 14.727C32.719 17.094 33.337 20.327 32.701 24.426C32.454 26.299 31.906 28.136 31.058 29.938C30.245 31.74 29.115 33.365 27.666 34.814C25.899 36.651 24.009 37.817 21.995 38.312C19.981 38.807 17.896 39.054 15.741 39.054H9.381L7.367 49.124H0L7.579 11.123ZM13.78 17.165L10.6 33.065C10.812 33.1 11.024 33.118 11.236 33.118C11.483 33.118 11.731 33.118 11.978 33.118C15.37 33.153 18.197 32.818 20.458 32.111C22.719 31.369 24.239 28.79 25.016 24.373C25.652 20.663 25.016 18.525 23.108 17.96C21.235 17.395 18.886 17.13 16.059 17.165C15.635 17.2 15.229 17.218 14.84 17.218C14.487 17.218 14.116 17.218 13.727 17.218L13.78 17.165Z" fill="black"/>
<path id="Vector_2" d="M41.0929 1H48.4069L46.3399 11.123H52.9119C56.5159 11.194 59.2009 11.936 60.9679 13.349C62.7699 14.762 63.2999 17.448 62.5579 21.405L59.0069 39.054H51.5869L54.9789 22.2C55.3319 20.433 55.2259 19.179 54.6609 18.437C54.0959 17.695 52.8769 17.324 51.0039 17.324L45.1209 17.271L40.7749 39.054H33.4609L41.0929 1Z" fill="black"/>
<path id="Vector_3" d="M70.411 11.123H84.615C88.784 11.158 91.805 12.36 93.678 14.727C95.551 17.094 96.169 20.327 95.533 24.426C95.286 26.299 94.738 28.136 93.89 29.938C93.077 31.74 91.947 33.365 90.498 34.814C88.731 36.651 86.841 37.817 84.827 38.312C82.813 38.807 80.728 39.054 78.573 39.054H72.213L70.199 49.124H62.832L70.411 11.123ZM76.612 17.165L73.432 33.065C73.644 33.1 73.856 33.118 74.068 33.118C74.315 33.118 74.563 33.118 74.81 33.118C78.202 33.153 81.029 32.818 83.29 32.111C85.551 31.369 87.071 28.79 87.848 24.373C88.484 20.663 87.848 18.525 85.94 17.96C84.067 17.395 81.718 17.13 78.891 17.165C78.467 17.2 78.061 17.218 77.672 17.218C77.319 17.218 76.948 17.218 76.559 17.218L76.612 17.165Z" fill="black"/>
</g>
<g id="Group 3">
<path id="Vector_4" d="M91.1134 49.7034C91.0826 49.7011 91.0538 49.6856 91.0327 49.6601C91.0116 49.6345 90.9999 49.6009 91 49.5659L91.0007 37.1483C91.0007 37.109 91.0144 37.0712 91.0388 37.0434C91.0633 37.0156 91.0964 37 91.1309 37H97.5175C97.6188 37 97.6692 37.0572 97.6687 37.1715L97.6658 39.2353C97.6656 39.2736 97.652 39.3103 97.6279 39.3373C97.6037 39.3643 97.5711 39.3795 97.5371 39.3795C96.1293 39.3795 94.6939 39.3223 93.2891 39.4167C93.2649 39.4182 93.2421 39.4302 93.2255 39.4503C93.2089 39.4703 93.1996 39.4969 93.1996 39.5244L93.2004 42.2353C93.2004 42.3607 93.2551 42.4234 93.3647 42.4234L97.2273 42.4259C97.3282 42.4264 97.3786 42.4836 97.3786 42.5974V44.6786C97.3786 44.7109 97.3674 44.742 97.3473 44.765C97.3273 44.7879 97.3001 44.801 97.2717 44.8012L93.3283 44.8285C93.2958 44.8287 93.2647 44.8434 93.2417 44.8693C93.2187 44.8952 93.2056 44.9303 93.2055 44.9669L93.1778 49.638C93.1777 49.6587 93.1707 49.6785 93.1582 49.6934C93.1458 49.7084 93.1289 49.7173 93.1109 49.7183C92.4284 49.7576 91.7625 49.7526 91.1134 49.7034Z" fill="black"/>
<path id="Vector_5" d="M165.661 44.521L168.318 40.6817C168.325 40.6713 168.334 40.663 168.344 40.6573C168.354 40.6515 168.365 40.6485 168.376 40.6485L170.523 40.6444C170.703 40.6438 170.737 40.7239 170.622 40.8847L167.622 45.0926C167.614 45.1039 167.61 45.118 167.61 45.1326C167.61 45.1472 167.614 45.1615 167.622 45.173C168.632 46.5825 169.632 47.9736 170.621 49.3462C170.69 49.4412 170.734 49.5141 170.755 49.5649C170.801 49.6764 170.77 49.7322 170.662 49.7322L168.569 49.7347C168.552 49.7347 168.534 49.73 168.518 49.721C168.501 49.712 168.487 49.6988 168.476 49.6825L165.703 45.7513C165.633 45.6519 165.597 45.6659 165.597 45.7935L165.591 49.5657C165.591 49.605 165.578 49.6429 165.554 49.6716C165.531 49.7002 165.499 49.7175 165.464 49.7198C164.826 49.7623 164.218 49.7662 163.642 49.7314C163.619 49.73 163.598 49.7191 163.582 49.7009C163.566 49.6827 163.557 49.6584 163.556 49.6328C163.55 49.4793 163.547 49.3205 163.547 49.1564C163.531 45.1382 163.531 41.1368 163.546 37.1523C163.546 37.1124 163.56 37.0743 163.585 37.0462C163.609 37.0181 163.643 37.0023 163.677 37.0023L165.475 37.0015C165.505 37.0015 165.534 37.015 165.555 37.0391C165.576 37.0632 165.588 37.0958 165.588 37.1299C165.587 39.4652 165.589 41.8015 165.594 44.139C165.594 44.2666 165.606 44.3914 165.63 44.5135C165.636 44.5406 165.646 44.543 165.661 44.521Z" fill="black"/>
<path id="Vector_6" d="M110.873 48.842C110.871 48.7376 110.837 48.7243 110.772 48.8022C110.211 49.4661 109.542 49.8492 108.764 49.9514C107.043 50.1759 105.515 49.0996 104.8 47.3283C103.944 45.2073 104.453 42.4534 106.233 41.0996C107.609 40.0532 109.613 40.1203 110.761 41.5677C110.828 41.6511 110.863 41.6368 110.867 41.5246L110.895 40.7881C110.896 40.7496 110.911 40.7131 110.935 40.6864C110.959 40.6597 110.992 40.6448 111.025 40.6448L112.81 40.6456C112.839 40.6456 112.866 40.6583 112.886 40.681C112.906 40.7036 112.917 40.7344 112.917 40.7666C112.949 43.716 112.949 46.6581 112.918 49.5926C112.918 49.6301 112.905 49.6659 112.881 49.6923C112.858 49.7187 112.827 49.7335 112.794 49.7335L111.053 49.7343C110.946 49.7343 110.891 49.6688 110.888 49.5379L110.873 48.842ZM106.45 45.0756C106.4 47.0085 107.848 48.1991 109.437 47.5918C110.535 47.1717 111.051 45.8726 110.836 44.6614C110.315 41.7202 106.529 42.0333 106.45 45.0756Z" fill="black"/>
<path id="Vector_7" d="M116.477 41.4423C116.65 41.2559 116.821 41.019 117.026 40.8806C118.209 40.0794 119.912 40.193 120.728 41.613C120.733 41.6232 120.741 41.6316 120.75 41.6375C120.76 41.6435 120.77 41.6468 120.781 41.6472C120.791 41.6476 120.802 41.6451 120.812 41.6399C120.821 41.6346 120.829 41.6268 120.836 41.6171C121.258 40.9836 121.819 40.5959 122.521 40.4539C124.656 40.0214 126.174 41.6619 126.175 44.0612C126.177 45.9027 126.176 47.7442 126.174 49.5857C126.174 49.6249 126.16 49.6624 126.136 49.69C126.112 49.7176 126.079 49.7332 126.045 49.7332L124.283 49.7348C124.184 49.7348 124.134 49.6779 124.134 49.5641C124.133 47.8823 124.127 46.2156 124.117 44.5641C124.111 43.5898 123.966 42.7365 123.02 42.5915C121.647 42.381 121.299 43.5633 121.295 44.8897C121.289 46.4622 121.285 48.0295 121.285 49.5915C121.285 49.6297 121.271 49.6664 121.248 49.6934C121.224 49.7205 121.192 49.7356 121.159 49.7356L119.422 49.7348C119.295 49.7348 119.231 49.6625 119.231 49.5177C119.233 47.9546 119.232 46.3899 119.229 44.8235C119.227 44.1689 119.191 43.726 119.118 43.4945C118.845 42.6196 117.952 42.352 117.252 42.7075C116.577 43.0488 116.389 43.8856 116.384 44.666C116.375 46.2938 116.373 47.9209 116.378 49.5476C116.379 49.673 116.325 49.7356 116.216 49.7356H114.514C114.387 49.7356 114.324 49.6636 114.324 49.5194V40.8226C114.324 40.7033 114.377 40.6437 114.481 40.6437L116.264 40.6453C116.289 40.6453 116.314 40.6559 116.332 40.675C116.351 40.694 116.361 40.7199 116.362 40.7472L116.376 41.3901C116.378 41.4967 116.412 41.5141 116.477 41.4423Z" fill="black"/>
<path id="Vector_8" d="M129.66 46.2418C129.889 47.0719 130.392 47.5826 131.169 47.7737C132.069 47.9952 132.857 47.8002 133.534 47.1888C133.542 47.1809 133.552 47.1762 133.563 47.1755C133.574 47.1747 133.584 47.1779 133.593 47.1846L134.96 48.2343C135.081 48.3266 135.088 48.4332 134.981 48.5541C132.772 51.062 128.666 50.2086 127.688 46.7488C127.071 44.5699 127.827 42.0164 129.646 40.9319C130.565 40.3851 131.735 40.25 132.739 40.54C134.884 41.1614 135.988 43.5839 135.677 45.9841C135.664 46.0874 135.611 46.1396 135.52 46.1407C133.556 46.1697 131.659 46.1672 129.72 46.1482C129.711 46.148 129.701 46.1505 129.692 46.1556C129.683 46.1606 129.675 46.168 129.669 46.1771C129.664 46.1863 129.66 46.1969 129.658 46.2081C129.656 46.2194 129.657 46.2309 129.66 46.2418ZM129.65 44.3147L133.62 44.3255C133.627 44.3254 133.633 44.3237 133.639 44.3204C133.645 44.317 133.65 44.3122 133.654 44.3062C133.658 44.3003 133.661 44.2933 133.663 44.2859C133.664 44.2784 133.664 44.2707 133.662 44.2633C133.447 43.2409 132.806 42.6005 131.906 42.5003C130.794 42.3768 129.911 43.0288 129.619 44.2691C129.618 44.2745 129.618 44.2801 129.619 44.2855C129.62 44.2909 129.622 44.296 129.625 44.3004C129.628 44.3047 129.632 44.3083 129.636 44.3108C129.64 44.3133 129.645 44.3146 129.65 44.3147Z" fill="black"/>
<path id="Vector_9" d="M156.716 45.1873C156.716 46.4637 156.271 47.6879 155.478 48.5904C154.686 49.493 153.612 50.0001 152.492 50.0001C151.371 50.0001 150.297 49.493 149.505 48.5904C148.713 47.6879 148.268 46.4637 148.268 45.1873C148.268 43.9109 148.713 42.6867 149.505 41.7841C150.297 40.8816 151.371 40.3745 152.492 40.3745C153.612 40.3745 154.686 40.8816 155.478 41.7841C156.271 42.6867 156.716 43.9109 156.716 45.1873ZM152.486 47.7167C153.064 47.719 153.619 47.4547 154.029 46.982C154.439 46.5092 154.67 45.8668 154.672 45.196C154.674 44.5251 154.447 43.8808 154.04 43.4049C153.633 42.9289 153.079 42.6602 152.502 42.6579C151.924 42.6556 151.369 42.9199 150.959 43.3926C150.549 43.8653 150.317 44.5078 150.315 45.1786C150.313 45.8495 150.541 46.4937 150.948 46.9697C151.355 47.4457 151.908 47.7144 152.486 47.7167Z" fill="black"/>
<path id="Vector_10" d="M159.953 41.9186C159.955 42.0418 159.984 42.0493 160.039 41.941C160.514 41.0125 161.232 40.5229 162.193 40.4721C162.31 40.466 162.369 40.5298 162.369 40.6635L162.368 42.8847C162.369 42.923 162.356 42.9599 162.333 42.988C162.31 43.0161 162.278 43.0334 162.244 43.0363C162.025 43.0553 161.771 43.0495 161.564 43.0993C160.473 43.3633 159.929 44.1672 159.931 45.511C159.933 46.8626 159.934 48.2197 159.934 49.5823C159.934 49.6227 159.92 49.6615 159.895 49.6901C159.87 49.7187 159.836 49.7347 159.8 49.7347L157.994 49.7339C157.97 49.7339 157.947 49.7231 157.93 49.7039C157.912 49.6847 157.903 49.6586 157.902 49.6312C157.854 46.7173 157.88 43.7844 157.883 40.8408C157.883 40.7093 157.941 40.6436 158.056 40.6436H159.773C159.879 40.6436 159.933 40.7068 159.935 40.8333L159.953 41.9186Z" fill="black"/>
<path id="Vector_11" d="M101.166 41.9893C101.203 41.981 101.231 41.9575 101.25 41.9189C101.7 41.0219 102.404 40.5413 103.363 40.4773C103.483 40.469 103.542 40.5331 103.542 40.6695V42.9023C103.542 42.9373 103.53 42.9709 103.509 42.9961C103.488 43.0213 103.459 43.0361 103.428 43.0373C102.4 43.0788 101.573 43.382 101.243 44.5146C101.165 44.7808 101.123 45.2149 101.117 45.817C101.105 47.0586 101.102 48.3099 101.108 49.5709C101.108 49.6797 101.061 49.7341 100.967 49.7341L99.2171 49.7333C99.126 49.7333 99.08 49.6808 99.079 49.5759C99.0528 46.6038 99.0518 43.6789 99.0761 40.8012C99.0766 40.6979 99.1221 40.6463 99.2128 40.6463L100.961 40.6455C101.058 40.6455 101.107 40.7029 101.108 40.8178L101.122 41.9504C101.122 41.9562 101.124 41.962 101.126 41.9673C101.128 41.9726 101.132 41.9772 101.136 41.981C101.14 41.9847 101.145 41.9873 101.15 41.9888C101.155 41.9902 101.161 41.9904 101.166 41.9893Z" fill="black"/>
<path id="Vector_12" d="M144.495 45.9447L145.768 40.745C145.775 40.7157 145.791 40.6899 145.812 40.6715C145.833 40.6531 145.858 40.6431 145.884 40.6431L147.798 40.6439C147.911 40.6439 147.951 40.7055 147.916 40.8287L145.466 49.6133C145.456 49.6489 145.437 49.68 145.411 49.702C145.384 49.7241 145.353 49.7359 145.32 49.7359H143.579C143.55 49.7359 143.521 49.7251 143.497 49.7051C143.474 49.6852 143.456 49.657 143.448 49.6249L142.049 44.3904C142.03 44.3169 142.003 44.3139 141.971 44.3813C141.938 44.4476 141.908 44.534 141.88 44.6406C141.451 46.2722 141.008 47.9353 140.552 49.6298C140.544 49.6605 140.527 49.6874 140.505 49.7065C140.482 49.7256 140.455 49.7359 140.426 49.7359H138.683C138.65 49.7358 138.617 49.7238 138.591 49.7014C138.564 49.6791 138.544 49.6476 138.534 49.6116L136.073 40.7914C136.068 40.7744 136.067 40.7565 136.07 40.739C136.072 40.7215 136.078 40.7049 136.087 40.6906C136.096 40.6763 136.108 40.6647 136.122 40.6567C136.136 40.6487 136.151 40.6446 136.167 40.6447L138.115 40.6456C138.141 40.6455 138.167 40.6553 138.188 40.6734C138.209 40.6915 138.224 40.7169 138.231 40.7458C138.661 42.5061 139.09 44.2658 139.52 46.025C139.533 46.0808 139.556 46.0993 139.589 46.0805C139.597 46.0755 139.605 46.0673 139.612 46.0565C139.619 46.0456 139.624 46.0323 139.628 46.0176L141.01 40.7251C141.016 40.7021 141.028 40.682 141.045 40.6677C141.062 40.6534 141.082 40.6456 141.103 40.6456H142.897C142.919 40.6455 142.94 40.6535 142.958 40.6685C142.975 40.6834 142.988 40.7045 142.994 40.7284L144.352 45.9455C144.401 46.1349 144.448 46.1347 144.495 45.9447Z" fill="black"/>
<path id="Vector_13" d="M129.651 44.3146C129.646 44.3145 129.641 44.3132 129.637 44.3107C129.632 44.3082 129.629 44.3047 129.626 44.3003C129.623 44.2959 129.621 44.2908 129.62 44.2854C129.619 44.28 129.619 44.2744 129.62 44.269C129.912 43.0288 130.795 42.3767 131.906 42.5002C132.807 42.6004 133.448 43.2409 133.663 44.2632C133.665 44.2706 133.665 44.2784 133.663 44.2858C133.662 44.2932 133.659 44.3002 133.655 44.3062C133.651 44.3121 133.646 44.317 133.64 44.3203C133.634 44.3236 133.628 44.3254 133.621 44.3254L129.651 44.3146Z" fill="white"/>
<path id="Vector_14" d="M109.436 47.5916C107.847 48.1989 106.398 47.0083 106.449 45.0754C106.528 42.0331 110.313 41.72 110.835 44.6612C111.05 45.8724 110.534 47.1715 109.436 47.5916Z" fill="white"/>
<path id="Vector_15" d="M150.315 45.1786C150.311 46.5755 151.282 47.7119 152.486 47.7166C153.689 47.7214 154.668 46.5929 154.672 45.1959C154.676 43.799 153.704 42.6626 152.501 42.6578C151.298 42.6531 150.319 43.7816 150.315 45.1786Z" fill="white"/>
<path id="Vector_16" d="M172.658 49.9828C173.399 49.9828 174.001 49.2977 174.001 48.4526C174.001 47.6075 173.399 46.9224 172.658 46.9224C171.916 46.9224 171.314 47.6075 171.314 48.4526C171.314 49.2977 171.916 49.9828 172.658 49.9828Z" fill="black"/>
</g>
</g>
</svg>
