<svg width="266" height="77" viewBox="0 0 266 77" fill="none" xmlns="http://www.w3.org/2000/svg">
<g clip-path="url(#clip0_29_2)">
<path d="M23.9349 40.4814C23.9401 40.6481 23.7578 40.6689 23.6328 40.7262C23.2995 40.8721 22.9557 40.9919 22.6172 41.1273C20.3568 42.0283 18.1901 43.1533 15.8984 43.9866C15.4193 44.1637 15.2474 44.0908 15.0703 43.6221C14.112 41.1012 13.1328 38.5856 12.1224 36.0804C11.9141 35.57 11.9297 35.3408 12.5026 35.1221C15.0078 34.1637 17.4922 33.1585 19.9818 32.1689C20.263 32.0544 20.5182 31.8356 20.7109 32.3304C21.737 34.971 22.7943 37.5908 23.8412 40.221C23.8724 40.2939 23.8932 40.3669 23.9349 40.4814ZM25.9662 42.3148C25.7162 42.3408 25.7422 42.1846 25.6953 42.0752C24.4349 39.0283 23.1797 35.9866 21.8932 32.9554C21.7005 32.4971 21.862 32.3773 22.237 32.221C25.1693 31.0231 28.1016 29.8148 31.0234 28.5856C31.4401 28.4085 31.5807 28.5023 31.7474 28.9033C32.9453 31.8304 34.1641 34.7523 35.4089 37.6585C35.6172 38.1481 35.4297 38.2627 35.0391 38.4189C32.2734 39.5491 29.5182 40.7002 26.7526 41.8304C26.4453 41.9606 26.1693 42.1273 25.9662 42.3148ZM24.388 41.3564C24.7005 41.3669 24.7057 41.6169 24.7734 41.7887C25.5078 43.6481 26.2214 45.5127 26.9766 47.3616C27.1328 47.7523 27.0651 47.8825 26.6797 48.0335C24.8359 48.7471 23.0078 49.4866 21.1745 50.2314C20.8516 50.3669 20.6849 50.346 20.5391 49.9762C19.8047 48.1221 19.0443 46.2783 18.2734 44.4346C18.1276 44.0856 18.2057 43.9554 18.5651 43.8252C19.6849 43.4085 20.7943 42.9606 21.888 42.4866C22.5912 42.1846 23.2266 41.7419 23.9714 41.5179C24.1172 41.4762 24.263 41.4085 24.388 41.3564Z" fill="#423F40"/>
<path d="M21.9776 46.5561L21.8677 46.477C21.5733 46.2265 21.2525 46.0068 21.0636 45.6552C20.8702 45.3037 20.9186 44.9389 20.9801 44.5698C21.0899 44.3193 21.191 44.0645 21.4371 43.9063C21.7403 43.7217 22.0303 43.4493 22.4258 43.7129C22.5269 43.8843 22.6236 44.0601 22.8741 44.0117C23.0982 44.0293 23.2871 44.1787 23.5156 44.1787C23.6035 44.2183 23.6475 44.2974 23.6958 44.3721C23.7617 44.5171 23.8452 44.6577 23.8364 44.8247C23.8364 45.0268 23.8496 45.229 23.8188 45.4267C23.7617 45.6728 23.665 45.9057 23.6343 46.165C23.6035 46.4506 23.4673 46.5956 23.1685 46.4199C22.9883 46.2529 22.9356 46.0244 22.8784 45.8002C22.8037 45.5366 22.8477 45.2993 22.9663 45.0532C23.0542 44.873 22.9048 44.9126 22.7993 44.9346C22.6895 44.9565 22.584 44.917 22.483 44.8906C22.2457 44.8642 22.2588 45.1147 22.1314 45.207C22.0567 45.2817 21.8677 45.3037 21.8985 45.4004C21.9644 45.5893 22.2017 45.5058 22.3467 45.5937C22.461 45.6464 22.5313 45.7343 22.5708 45.853C22.584 46.0815 22.6851 46.2748 22.8213 46.4594C22.8389 46.5165 22.8389 46.5737 22.8257 46.6308C22.751 46.7758 22.6455 46.8813 22.4873 46.9164C22.2632 46.8681 22.1358 46.6923 21.9776 46.5561Z" fill="#454343"/>
<path d="M21.9795 46.5559C22.2168 46.5339 22.3486 46.679 22.4673 46.8503C22.6474 46.7976 22.8276 46.7185 23.021 46.7053C23.3549 46.7185 23.623 46.8416 23.768 47.1623C23.1879 47.8523 22.6606 47.7951 22.2475 47.0041C22.1685 46.8503 22.0674 46.7053 21.9795 46.5559Z" fill="#E8E7E6"/>
<path d="M23.7663 47.1625C23.4894 47.1493 23.3532 46.7934 23.0412 46.8681C22.9753 46.8022 22.9621 46.7275 22.9753 46.6396C23.0412 46.5297 22.9489 46.3144 23.1862 46.3188C23.3972 46.4638 23.551 46.4331 23.5466 46.1606C23.5466 45.8925 23.6345 45.664 23.7267 45.4267C23.8498 45.4048 23.9201 45.4311 23.863 45.5762C23.7883 45.9541 23.6388 46.3188 23.9289 46.6967C24.0256 46.8198 24.0563 47.0878 23.7663 47.1625Z" fill="#F3F3F2"/>
<path d="M21.0554 44.4951C21.029 44.8994 21.007 45.3036 21.1784 45.6859C21.1476 45.7431 21.1388 45.8178 21.0554 45.8354C20.7609 45.4091 20.6906 44.9697 20.9411 44.4995C20.9763 44.4511 21.0158 44.4467 21.0554 44.4951Z" fill="#DFDEDC"/>
<path d="M22.4179 43.827C22.0531 43.5414 21.7807 43.8621 21.4775 43.9764C21.3457 44.0335 21.3281 43.9632 21.3369 43.8534C21.7763 43.493 22.2509 43.3216 22.8134 43.5589C22.765 43.6908 22.6596 43.7699 22.5585 43.8534C22.5058 43.8753 22.4574 43.8665 22.4179 43.827Z" fill="#D7D5D3"/>
<path d="M22.5283 43.8096C22.5283 43.6206 22.6602 43.5811 22.814 43.5591C23.2402 43.6074 23.5039 43.8755 23.7192 44.2138C23.7939 44.3589 23.7148 44.372 23.6005 44.3589C23.5522 44.3237 23.5039 44.2885 23.4555 44.2578C23.2226 44.2358 23.0908 44.0293 22.8887 43.9546C22.7744 43.8931 22.625 43.9194 22.5283 43.8096Z" fill="#E5E4E3"/>
<path d="M23.8638 45.5759C23.8154 45.5276 23.7715 45.4748 23.7275 45.4265C23.7319 45.2024 23.7363 44.9739 23.7407 44.7497C23.8066 44.6663 23.7363 44.53 23.8594 44.4685C24.0439 44.8376 24.0483 45.2068 23.8638 45.5759Z" fill="#BFBEBC"/>
<path d="M21.0566 45.8352C21.0962 45.7869 21.1401 45.7341 21.1797 45.6858C21.3291 46.0198 21.7817 46.0901 21.8696 46.4768C21.4785 46.4109 21.2192 46.1867 21.0566 45.8352Z" fill="#EBEAE9"/>
<path d="M21.337 43.8535C21.3809 43.8975 21.4293 43.937 21.4776 43.9766C21.337 44.1479 21.1964 44.3237 21.0557 44.4951L20.9986 44.4995H20.9415C20.9371 44.2007 21.0997 44.0073 21.337 43.8535Z" fill="#C8C6C5"/>
<path d="M20.9282 43.9413C20.6733 43.9457 20.5591 43.8094 20.458 43.6556C20.4932 43.5326 20.5811 43.5326 20.6514 43.5765C20.77 43.6512 20.937 43.6952 20.9282 43.9413Z" fill="#CBC9C7"/>
<path d="M20.5365 44.772C20.3211 44.8906 20.1673 44.9522 20.0091 44.8115C19.9916 44.7984 20.0004 44.7149 20.0267 44.6973C20.1849 44.583 20.3343 44.6138 20.5365 44.772Z" fill="#C4C3C1"/>
<path d="M23.5088 43.6513C23.5703 43.3306 23.6758 43.1811 23.9394 43.0977C23.9482 43.3745 23.7944 43.4932 23.5088 43.6513Z" fill="#D5D3D1"/>
<path d="M22.66 43.2954C22.5721 42.9702 22.638 42.8076 22.7743 42.5C22.8621 42.8516 22.8182 43.0185 22.66 43.2954Z" fill="#EBE9E8"/>
<path d="M23.8599 44.4687C23.8203 44.561 23.7808 44.6577 23.7412 44.75C23.6929 44.6182 23.6445 44.4907 23.6006 44.3589C23.6401 44.3105 23.6797 44.2622 23.7192 44.2139C23.8203 44.271 23.8511 44.3633 23.8599 44.4687Z" fill="#D3D0CF"/>
<path d="M22.7526 44.8774C22.8186 44.6796 22.946 44.5654 23.1437 44.6884C23.3327 44.807 23.2975 45.0004 23.1525 45.1278C22.968 45.2904 22.8449 45.4311 23.0383 45.6596C22.7702 45.8925 22.5505 45.3739 22.2824 45.6156C22.1506 45.6112 22.0012 45.6288 21.9485 45.4706C21.8957 45.3168 22.0012 45.2289 22.1286 45.1674C22.0979 44.996 21.9968 44.8114 22.1594 44.6752C22.2956 44.5566 22.4406 44.6093 22.5461 44.7499C22.5944 44.8334 22.6032 44.974 22.7526 44.8774Z" fill="#E7E6E5"/>
<path d="M22.3043 45.5453C22.669 44.8334 22.7745 45.7431 23.0381 45.6596C23.0865 45.8793 23.1348 46.099 23.1875 46.3187C23.0645 46.3934 23.2227 46.5824 23.0557 46.6395C22.9502 46.6878 22.858 46.6747 22.7789 46.5868C22.7701 46.5209 22.7613 46.4505 22.7569 46.3846C22.6031 46.2572 22.5591 46.077 22.5108 45.8969C22.4669 45.8134 22.4185 45.7255 22.3702 45.642C22.3218 45.6288 22.2999 45.5936 22.3043 45.5453Z" fill="#656262"/>
<path d="M22.3039 45.5453C22.3259 45.576 22.3479 45.6112 22.3698 45.6419C22.2863 45.6419 22.2028 45.6419 22.1194 45.6463C21.8689 45.6683 21.5876 45.6639 21.6096 45.3431C21.6316 45.0179 21.9436 45.2113 22.1281 45.1673C22.0183 45.3695 21.9436 45.5584 22.3039 45.5453Z" fill="#DAD9D7"/>
<path d="M22.5285 43.8095C22.656 43.8095 22.8054 43.5766 22.9152 43.8359C22.9943 43.9238 22.9987 44.0072 22.9196 44.0951C22.6384 44.2226 22.3616 44.3324 22.4187 43.8271C22.4582 43.8227 22.4934 43.8183 22.5285 43.8095Z" fill="#AAA9A8"/>
<path d="M22.9194 44.0952C22.9194 44.0073 22.9194 43.9238 22.915 43.8359C23.0952 43.9766 23.2754 44.1172 23.4555 44.2578C23.1611 44.5786 23.1128 44.104 22.9194 44.0952Z" fill="#D1CFCD"/>
<path d="M22.7783 46.5867L23.0552 46.6394C23.0508 46.7141 23.0464 46.7932 23.042 46.8679C22.8486 46.8635 22.6553 46.8547 22.4619 46.8503L22.7783 46.5867Z" fill="#DFDDDC"/>
<path d="M22.5109 45.8967C22.6955 46.011 22.713 46.2043 22.757 46.3845C22.401 46.3581 22.4626 46.1252 22.5109 45.8967Z" fill="#BFBCBB"/>
<path d="M22.7524 44.8774C22.7744 44.9609 22.792 45.1059 22.7085 45.1016C22.4756 45.0928 22.5854 44.8818 22.5459 44.75C22.6162 44.7939 22.6865 44.8335 22.7524 44.8774Z" fill="#707071"/>
<path d="M16.8929 37.3999C17.406 37.1656 17.5797 36.6444 17.2848 36.2161C16.8929 35.6425 17.0626 34.9193 17.6605 34.6122C17.8019 34.5355 17.9555 34.4385 18.109 34.5516C18.2464 34.6567 18.1615 34.8142 18.1292 34.9435C18.0767 35.19 18.0322 35.4243 18.2827 35.598C18.5049 35.7556 18.6504 35.5778 18.812 35.4809C18.9978 35.4687 18.9897 35.594 18.9776 35.7192C18.8079 35.9899 18.5655 36.0909 18.2585 36.002C17.9514 35.9091 17.8019 35.6707 17.6929 35.0849C17.4828 35.4283 17.4464 35.7273 17.6807 35.998C17.9434 36.305 17.9151 36.604 17.7696 36.9474C17.4787 37.6302 17.1434 38.2927 16.7677 38.9351C16.4728 39.4361 16.19 39.9492 16.0607 40.5269C16.0405 40.6764 16.0566 40.8299 16.0809 40.9754C16.1455 41.1652 16.2304 41.0723 16.3152 40.9915C16.4 40.8865 16.4566 40.7693 16.497 40.6481C16.9778 39.4926 17.4424 38.3372 17.9312 37.1858C18.0161 36.9838 18.0888 36.7696 18.2989 36.6484C18.4282 36.6242 18.5574 36.604 18.5574 36.7979C18.416 36.9918 18.2221 37.3837 18.3312 37.412C18.6988 37.5171 18.8241 37.9817 19.2523 37.9493C19.8503 37.9049 20.3108 38.2685 20.8118 38.515C21.0017 38.6079 21.0381 38.7937 20.9653 38.9836C20.8562 39.2664 20.7431 39.5452 20.6138 39.8199C20.4926 40.0865 20.2906 40.1633 20.024 40.0179C19.5513 39.7633 18.9978 39.6704 18.6221 39.2179C18.4039 38.9513 17.9514 39.1654 17.6848 38.9109C17.5878 39.1008 17.4787 39.2826 17.3979 39.4765C17.1596 40.03 16.9253 40.5875 16.703 41.1491C16.5818 41.4602 16.3596 41.5773 16.0405 41.5369C15.689 41.4965 15.592 41.238 15.5395 40.9471C15.4951 40.7168 15.5799 40.5067 15.6728 40.3087C15.9758 39.6704 16.2829 39.0361 16.598 38.4059C16.699 38.1998 16.8404 38.0059 16.501 37.8887C16.4687 37.7958 16.5212 37.7473 16.5859 37.6989C16.6748 37.6463 16.703 37.5615 16.7071 37.4605C16.7515 37.3878 16.8081 37.3554 16.8929 37.3999Z" fill="#F7F6F6"/>
<path d="M18.9241 35.6989C18.92 35.61 18.9039 35.5252 18.8109 35.4807C18.8796 35.2181 18.7463 34.7616 19.1139 34.7576C19.5058 34.7576 19.6513 35.1697 19.6957 35.5494C19.7725 36.2039 19.3725 36.6443 18.5564 36.7978C18.4837 36.7614 18.4069 36.7291 18.3342 36.6928C18.2978 36.3776 18.5847 36.4423 18.7382 36.3655C19.0655 36.1878 19.2836 35.9656 19.2392 35.5575C19.0978 35.5373 19.1018 35.8201 18.9241 35.6989Z" fill="#EBE9E8"/>
<path d="M14.0635 36.3293C14.4352 36.0991 14.8149 36.2324 15.0897 36.4465C15.3442 36.6404 15.6149 36.7899 15.8815 36.9475C15.9017 37.0606 15.833 37.105 15.7401 37.1374C15.4896 37.1737 15.2513 37.097 15.0775 36.9354C14.8311 36.701 14.5362 36.6081 14.2251 36.5354C14.1402 36.491 14.0837 36.4263 14.0635 36.3293Z" fill="#E3E2E0"/>
<path d="M14.0643 36.3291C14.1047 36.3695 14.1451 36.4139 14.1855 36.4543C14.343 36.6079 14.4238 36.822 14.6097 36.9513C14.7066 37.0604 14.9248 37.0604 14.9046 37.2745C14.1976 37.2826 13.8461 36.8907 14.0643 36.3291Z" fill="#F5F5F4"/>
<path d="M14.9095 37.2746C14.7883 37.2059 14.6671 37.1413 14.5459 37.0726C15.0428 36.7332 15.4064 37.0605 15.7902 37.3109C15.8145 37.3756 15.8064 37.4402 15.766 37.4968C15.4428 37.5614 15.2125 37.2705 14.9095 37.2746Z" fill="#DBD9D8"/>
<path d="M15.7529 37.0604C15.7974 37.024 15.8418 36.9836 15.8822 36.9473C16.2337 37.0644 16.5811 37.1937 16.8922 37.3998C16.8397 37.4321 16.7912 37.4644 16.7427 37.4967C16.3064 37.5937 15.9832 37.4321 15.7529 37.0604Z" fill="#D7D5D4"/>
<path d="M15.7659 37.4967L15.7578 37.4765C16.1335 37.3311 16.2911 37.3877 16.6224 37.7795C16.582 37.8159 16.5416 37.8523 16.5012 37.8886C16.2426 37.7876 15.9315 37.7755 15.7659 37.4967Z" fill="#CBC9C7"/>
<path d="M18.9247 35.6989C19.1631 35.5737 18.9611 35.2747 19.1469 35.1293C19.6317 35.5414 19.5105 36.1635 18.9207 36.4746C18.7268 36.5756 18.4722 36.4706 18.3349 36.6928C17.6965 38.0341 17.1592 39.4198 16.6138 40.8015C16.335 40.8298 16.1452 40.6076 15.8906 40.5591C16.0765 39.8117 16.5168 39.1815 16.8481 38.4987C17.0824 38.0139 17.3127 37.525 17.5713 37.0483C17.7733 36.6685 17.8541 36.3777 17.4743 36.01C17.0986 35.6464 17.3127 35.1131 17.9147 34.7939C17.8097 35.2303 17.8056 35.6262 18.2298 35.8646C18.5126 36.0262 18.7146 35.8524 18.9247 35.6989Z" fill="#434040"/>
<path d="M16.6204 37.7796C16.3537 37.618 16.0911 37.4402 15.7558 37.4766C15.4447 37.0645 14.9963 37.0645 14.5438 37.0726C14.362 36.9029 14.0751 36.7938 14.1842 36.4545C14.568 36.4262 14.9114 36.4545 15.17 36.814C15.2912 36.9837 15.5296 37.0484 15.7518 37.0605C16.0831 37.2059 16.4103 37.3514 16.7416 37.5008C16.8426 37.5493 17.0001 37.5897 16.9395 37.7311C16.883 37.8564 16.7335 37.7917 16.6204 37.7796Z" fill="#5A5656"/>
<path d="M18.8915 39.0967C18.7703 38.9149 18.6895 38.6806 18.3865 38.8018C17.9986 38.9634 18.0148 38.7654 18.1198 38.4947C18.1602 38.4018 18.2007 38.3089 18.2411 38.22C18.3784 37.9251 18.4915 37.5292 18.8067 38.1069C18.8834 38.2564 19.0329 38.2564 19.1743 38.2645C19.3198 38.3937 19.3561 38.5553 19.3278 38.7371C19.2026 38.8826 19.0652 39.0119 18.8915 39.0967Z" fill="#474444"/>
<path d="M18.8916 39.0967C18.8916 38.8382 18.9966 38.7008 19.2754 38.7453C19.4491 38.6038 19.6148 38.6523 19.7764 38.7655C19.8935 38.8624 19.9703 38.9796 19.9703 39.1371C19.9541 39.2179 19.9097 39.2745 19.8329 39.3028C19.7845 39.3109 19.74 39.3068 19.6956 39.2947C19.6633 39.2664 19.6269 39.2462 19.5865 39.2301C19.5623 39.2301 19.5421 39.2341 19.5219 39.2341C19.2633 39.3957 19.0653 39.3109 18.8916 39.0967Z" fill="#E0DEDC"/>
<path d="M19.8989 39.2382C19.8585 39.113 19.8141 38.9877 19.7737 38.8665C19.7373 38.8382 19.7252 38.7978 19.7293 38.7534C19.7454 38.6928 19.7777 38.6362 19.8101 38.5837C19.8303 38.5433 19.8626 38.515 19.8989 38.4948C20.0727 38.4867 20.2302 38.511 20.3676 38.6241C20.4767 38.7372 20.711 38.7615 20.6302 39.0039L20.6342 38.9877C20.5211 39.1776 20.3514 39.2746 20.1413 39.3109C20.0484 39.323 19.9676 39.3069 19.8989 39.2382Z" fill="#DBD9D8"/>
<path d="M15.8905 40.5591C16.2904 40.1712 16.3632 40.7409 16.6136 40.8015C16.5975 40.9227 16.5207 40.9954 16.4238 41.052C16.2662 41.1368 16.1167 41.1934 16.0036 40.9914C15.8703 40.8702 15.8864 40.7126 15.8905 40.5591Z" fill="#DCDAD9"/>
<path d="M19.7803 38.7412C19.7763 38.7856 19.7722 38.826 19.7722 38.8664C19.6187 38.7775 19.4531 38.7412 19.2753 38.7452C19.2147 38.5917 19.1177 38.4422 19.1743 38.2644L19.1622 38.2685C19.3359 38.1311 19.5137 38.2685 19.6874 38.2644C19.7601 38.3412 19.8288 38.418 19.8975 38.4947C19.8934 38.5311 19.8975 38.5674 19.9056 38.5998C19.8652 38.6523 19.8328 38.7008 19.7803 38.7412Z" fill="#E8E7E6"/>
<path d="M20.1523 39.234C20.2412 39.0118 20.5321 39.1896 20.6331 38.9875C20.6089 39.2138 20.6372 39.4602 20.3826 39.5936C20.3624 39.5814 20.3422 39.5693 20.318 39.5572C20.2291 39.4643 20.1564 39.3673 20.1523 39.234Z" fill="#504E4F"/>
<path d="M16.0027 40.9915C16.1441 41.0117 16.2815 41.0319 16.4229 41.0521C16.3784 41.246 16.2815 41.3631 16.0633 41.3025C15.8492 41.2379 15.934 41.1127 16.0027 40.9915Z" fill="#595757"/>
<path d="M19.9055 39.6947C19.6429 39.6503 19.4571 39.5452 19.5217 39.2341L19.5702 39.2543H19.6106L19.651 39.2382C19.752 39.3473 19.9136 39.3917 19.954 39.5573C19.958 39.6099 19.9419 39.6543 19.9055 39.6947Z" fill="#656464"/>
<path d="M19.6923 38.2644C19.5146 38.4139 19.3409 38.2321 19.1631 38.2685C19.3368 38.0786 19.5146 38.0948 19.6923 38.2644Z" fill="#818182"/>
<path d="M19.9065 39.6946C19.9146 39.6703 19.9106 39.6461 19.8984 39.6219C20.056 39.4562 20.2216 39.4764 20.3913 39.6057L20.3832 39.5936C20.2903 39.9329 20.0802 39.7309 19.9065 39.6946Z" fill="#423F3F"/>
<path d="M20.6288 38.9998C20.5399 38.8745 20.4551 38.7493 20.3662 38.624C20.6248 38.6321 20.8429 38.6685 20.6288 38.9998Z" fill="#514F50"/>
<path d="M20.391 39.6058C20.2253 39.6139 20.0637 39.6179 19.8981 39.622C19.8617 39.4644 19.5547 39.4846 19.6517 39.2382H19.8981C19.9829 39.2341 20.0678 39.2341 20.1526 39.2341C20.3708 39.2705 20.3748 39.4442 20.391 39.6058Z" fill="#E2E0DF"/>
<path d="M25.8351 40.2834C25.6862 40.311 25.4987 40.1345 25.3828 39.8532C24.6051 37.9778 23.8274 36.0969 23.0552 34.2161C22.8952 33.8244 23.0993 33.5928 23.4578 33.4549C25.8407 32.5172 28.1628 31.4361 30.5787 30.5701C31.0641 30.3936 31.3509 30.5646 31.5385 30.9231C32.4486 32.6827 33.2208 34.5084 33.9489 36.3507C34.0978 36.7313 33.9047 37.0291 33.5848 37.167C31.1799 38.1929 28.764 39.1968 26.3481 40.2062C26.2488 40.2448 26.133 40.2393 25.8351 40.2834Z" fill="#F9F9F8"/>
<path d="M30.5864 32.153C31.3973 31.6952 31.7944 31.96 32.0812 32.8315C32.4398 33.9181 32.9527 34.9606 33.4271 36.0086C33.6422 36.4829 33.565 36.7697 33.0741 36.9849C30.9119 37.9391 28.7552 38.9044 26.5489 39.7538C25.9863 39.9744 25.7215 39.8476 25.5064 39.2794C25.0486 38.0494 24.5466 36.8304 24.0006 35.639C23.7744 35.1481 23.9013 34.955 24.3426 34.7896C24.7507 34.6296 25.1424 34.4255 25.545 34.2435C25.8649 33.7912 26.4386 33.7691 26.8523 33.4768C27.4259 33.2341 28.0106 33.008 28.5952 32.7708C28.8765 32.6494 29.1799 32.5612 29.4612 32.4288C29.8142 32.2688 30.1893 32.1585 30.5864 32.153Z" fill="#423F40"/>
<path d="M25.3565 34.0836C24.9814 34.2381 24.6119 34.4201 24.2202 34.5359C24.0051 34.6021 23.7404 34.9992 23.5142 34.4642C23.3157 34.0009 23.4811 33.8078 23.8617 33.6479C25.533 32.9694 27.2043 32.291 28.8701 31.6125C28.9583 31.8939 29.0521 32.1752 29.0797 32.4675C28.9528 32.6881 28.7211 32.7543 28.5226 32.8701C27.9379 33.0908 27.3587 33.3224 26.7796 33.5541C26.3273 33.7913 25.8584 33.9733 25.3565 34.0836Z" fill="#434141"/>
<path d="M25.3555 34.0836C25.7636 33.7747 26.249 33.6368 26.7179 33.4658C26.8006 33.5044 26.9054 33.5155 26.9275 33.6368C26.4972 33.9016 26.0284 34.1001 25.543 34.2435C25.4823 34.1939 25.4161 34.1387 25.3555 34.0836Z" fill="#D6D4D2"/>
<path d="M29.0189 32.4454C28.6273 32.2248 28.699 31.9269 28.8699 31.6125L29.063 31.4636C29.223 31.5298 29.3609 31.6181 29.4491 31.7725C29.5043 31.9049 29.5153 32.0373 29.4877 32.1752C29.4657 32.2469 29.4326 32.3075 29.3884 32.3627C29.2836 32.4565 29.1733 32.5392 29.0189 32.4454Z" fill="#DFDDDB"/>
<path d="M30.369 31.1217C30.6448 31.0279 30.9261 30.9066 31.2074 31.1327C31.2681 31.3313 31.1522 31.4858 31.0529 31.6402C30.8544 31.7505 30.6337 31.8002 30.4076 31.8333C30.3359 31.8002 30.2807 31.745 30.2476 31.6678C30.1814 31.4637 30.2035 31.2762 30.369 31.1217Z" fill="#DBD9D8"/>
<path d="M30.5857 32.1531C30.2327 32.2965 29.8796 32.4454 29.5321 32.5888C29.3998 32.5392 29.3005 32.462 29.3446 32.2965L29.3777 32.2689C29.5156 32.1641 29.5487 31.9766 29.6976 31.8773C29.8465 31.7835 30.0175 31.7339 30.1885 31.7063C30.2657 31.7063 30.3264 31.7339 30.3705 31.789L30.3595 31.778C30.4202 31.8166 30.4423 31.8497 30.4202 31.8883C30.4036 31.9269 30.3871 31.9435 30.365 31.9435C30.4367 32.0152 30.514 32.0814 30.5857 32.1531Z" fill="#D0CECC"/>
<path d="M29.355 31.7891C29.184 31.7505 29.0572 31.6677 29.0627 31.4636C29.3329 31.3754 29.6032 31.2816 29.868 31.1934C29.9562 31.2761 29.9507 31.3754 29.9121 31.4802C29.8018 31.6181 29.686 31.7449 29.537 31.8442C29.4653 31.8608 29.4047 31.8442 29.355 31.7891Z" fill="#565455"/>
<path d="M30.3629 31.9434C30.3629 31.8882 30.3629 31.8331 30.3574 31.7779C30.6001 31.7283 30.8373 31.6731 31.0745 31.6235C31.1241 31.5738 31.1682 31.5738 31.2069 31.629C30.9476 31.7834 30.6773 31.9213 30.3629 31.9434Z" fill="#787879"/>
<path d="M31.2079 31.629L31.1417 31.6124L31.0755 31.6235C30.9983 31.4304 31.1031 31.2815 31.2079 31.1326C31.3623 31.2925 31.594 31.458 31.2079 31.629Z" fill="#5B595A"/>
<path d="M32.3279 34.7289C32.0852 35.6169 31.6826 36.3892 31.0152 37.0014C30.8276 37.1724 30.5463 37.1724 30.3202 37.0124C30.094 36.847 30.1768 36.6098 30.2429 36.4057C30.4084 35.8982 31.0538 35.4129 30.8331 34.9826C30.6621 34.6517 29.912 34.6241 29.4211 34.4421C29.2115 34.3649 29.024 34.2214 29.0515 33.9567C29.0791 33.7085 29.2611 33.5375 29.4873 33.5265C30.4581 33.4768 31.313 33.8464 32.1349 34.3042C32.2452 34.3649 32.2672 34.5855 32.3279 34.7289Z" fill="#EEEDEC"/>
<path d="M27.3968 34.9661C27.3416 34.6407 27.3857 34.3593 27.7332 34.2159C28.0642 34.078 28.2517 34.3042 28.4282 34.5028C28.9908 35.1426 29.4818 35.8321 29.923 36.5601C30.1216 36.8856 30.2043 37.2937 29.8789 37.5089C29.559 37.7295 29.2501 37.4261 29.046 37.1669C28.4779 36.4388 27.9373 35.6887 27.3858 34.944L27.3968 34.9661Z" fill="#F0EFEE"/>
<path d="M27.3837 34.9496C27.3341 35.0709 27.29 35.2033 27.2348 35.3246C27.0087 35.81 26.5564 36.3175 26.6115 36.7698C26.6777 37.2496 27.5547 36.9352 27.8802 37.3875C27.9574 37.531 27.8691 37.6027 27.7643 37.6688C27.7147 37.6909 27.6595 37.7075 27.6044 37.7019C25.7566 37.5475 25.5359 37.1504 26.4295 35.5839C26.5233 35.5177 26.3026 35.468 26.3854 35.5453C26.3964 35.5508 26.3743 35.5673 26.3357 35.6115C26.242 35.7107 26.1372 35.7935 25.9882 35.81C25.8614 35.7714 25.7786 35.7107 25.8614 35.5563C26.4185 34.5635 26.6832 34.4587 27.3948 34.9661L27.3837 34.9496Z" fill="#ECEBEA"/>
<path d="M27.649 37.6028C27.7262 37.5311 27.8034 37.4594 27.8862 37.3877C28.2006 37.3712 28.4267 37.4704 28.3936 37.8345C28.3605 38.171 28.1123 38.2647 27.82 38.2758C27.4339 38.2813 27.0698 38.1985 26.7223 38.0386C26.7003 37.9007 26.783 37.8345 26.8933 37.7904C27.0367 37.7462 27.1801 37.7518 27.3236 37.7848C27.4228 37.7793 27.5387 37.9062 27.6214 37.7518C27.6104 37.7021 27.6214 37.6525 27.649 37.6028Z" fill="#F5F5F4"/>
<path d="M26.9264 33.6367C26.8547 33.5761 26.7885 33.5209 26.7168 33.4657C27.307 33.2286 27.8917 32.9914 28.4819 32.7542C28.6584 32.677 28.708 32.7542 28.697 32.9197C28.1068 33.1569 27.5166 33.394 26.9264 33.6367Z" fill="#E5E3E2"/>
<path d="M25.8635 35.5564C25.9132 35.6226 25.9683 35.6888 26.018 35.7494C26.1559 36.29 25.7863 36.6044 25.494 36.9519C25.3395 36.9795 25.2954 36.8636 25.2402 36.7588C25.323 36.2955 25.5657 35.9149 25.8635 35.5564Z" fill="#CFCDCC"/>
<path d="M26.928 37.8785C26.8618 37.9337 26.7901 37.9833 26.7239 38.0385C26.3102 37.9227 25.88 37.8565 25.5215 37.5917C25.5601 37.4593 25.6428 37.3766 25.7752 37.3435C26.211 37.4152 26.6908 37.3876 26.928 37.8785Z" fill="#E5E4E3"/>
<path d="M28.6995 32.9199C28.6278 32.8648 28.5561 32.8096 28.4844 32.7544C28.6664 32.6496 28.8429 32.5448 29.0194 32.4456C29.1297 32.3959 29.2345 32.3463 29.3448 32.2966C29.4055 32.3959 29.4662 32.4952 29.5269 32.589C29.2511 32.6993 28.9753 32.8096 28.6995 32.9199Z" fill="#E1DFDD"/>
<path d="M25.7132 37.4427C25.647 37.4924 25.5864 37.542 25.5202 37.5917C25.112 37.4207 25.2058 37.0787 25.2444 36.7588C25.2995 36.825 25.3602 36.8912 25.4154 36.9574C25.6525 37.0346 25.7187 37.2221 25.7132 37.4427Z" fill="#F1F0F0"/>
<path d="M29.3535 31.7892H29.4859C29.6072 31.7782 29.6569 31.8499 29.6679 31.9602C29.8003 32.2746 29.5907 32.2746 29.3811 32.2691C29.3701 32.1091 29.3645 31.9492 29.3535 31.7892Z" fill="#4F4D4E"/>
<path d="M29.6683 31.9601C29.6077 31.905 29.547 31.8443 29.4863 31.7891C29.4918 31.5409 29.6022 31.3975 29.8669 31.4086C30.06 31.4472 30.231 31.5134 30.2089 31.7616C30.0876 31.9822 29.8669 31.9436 29.6683 31.9601Z" fill="#D8D5D4"/>
<path d="M29.2988 33.9017C30.3413 33.8024 31.0529 34.3154 31.8195 34.5912C31.9574 34.6408 31.9574 34.8504 31.8637 35.0214C31.5327 35.6558 31.3231 36.3673 30.573 36.781C30.584 36.2128 30.8598 35.8047 31.1466 35.4075C31.461 34.9828 31.3948 34.7456 30.8708 34.5802C30.391 34.4257 29.8394 34.4312 29.2988 33.9017Z" fill="#494647"/>
<path d="M27.8379 34.6353C28.6542 35.3302 29.2389 36.1852 29.6195 37.1725C28.8032 36.4886 28.1909 35.6557 27.8379 34.6353Z" fill="#545252"/>
<path d="M25.7139 37.4428C25.5208 37.338 25.4932 37.1284 25.416 36.9574C25.6146 36.5547 25.8187 36.1521 26.0172 35.7494C26.2654 35.5398 26.3702 34.9386 26.7233 35.1482C27.0377 35.3357 26.5798 35.6998 26.4364 35.948C25.8242 37.018 25.8628 37.1449 27.0432 37.4207C27.2473 37.4703 27.4458 37.542 27.6499 37.6027C27.6609 37.6524 27.6775 37.702 27.7161 37.7351C27.7326 38.055 27.5506 37.9943 27.3576 37.9282C27.2142 37.9116 27.0708 37.8951 26.9273 37.8785C26.5247 37.7351 26.1165 37.5917 25.7139 37.4428Z" fill="#524F4F"/>
<path d="M27.3574 37.9282C27.4898 37.8951 27.6663 37.9282 27.7159 37.7351C27.8263 37.7682 28.069 37.7351 27.9752 37.9226C27.8152 38.226 27.567 38.0661 27.3574 37.9282Z" fill="#8C8C8C"/>
<path d="M64.5 42L56 43.5L54 50L62.5 48.5L64.5 42Z" fill="#464444"/>
<path d="M231.402 32.9531C231.402 29.5677 231.412 26.1823 231.391 22.7969C231.391 22.3594 231.553 22.2656 231.933 22.2656C234.152 22.2552 236.376 22.2448 238.589 22.2135C239.131 22.2083 239.001 22.5729 239.001 22.8542C238.985 25.7448 238.954 28.6354 238.938 31.526C238.912 35.3489 238.912 39.1823 238.881 43.0104C238.86 45.0312 238.355 46.9062 237.167 48.5885C235.907 50.3698 234.136 51.3333 232.048 51.7448C229.251 52.2969 226.443 52.2708 223.662 51.6302C219.324 50.6302 216.693 47.3802 216.704 42.9583C216.714 36.2135 216.782 29.4687 216.803 22.7239C216.808 22.2187 216.938 22.0573 217.459 22.0677C219.469 22.1094 221.48 22.1198 223.49 22.1094C224.126 22.1042 224.381 22.2448 224.381 22.9792C224.344 29.4896 224.355 36.0052 224.36 42.5156C224.36 44.2864 225.053 45.0833 226.777 45.3854C227.641 45.5364 228.49 45.5156 229.344 45.3594C230.735 45.0989 231.423 44.2916 231.428 42.875C231.438 39.5677 231.433 36.2604 231.433 32.9531H231.402ZM150.032 51.3281C146.949 51.3281 143.865 51.3177 140.787 51.3437C140.204 51.3489 139.985 51.2396 139.99 50.5885C140.037 46.5 140.027 42.4114 140.048 38.3229C140.074 33.2448 140.126 28.1666 140.131 23.0937C140.136 22.5156 140.256 22.3594 140.855 22.3646C146.469 22.4062 152.084 22.4114 157.699 22.4323C158.35 22.4375 159.001 22.5052 159.652 22.4896C160.089 22.4792 160.173 22.6719 160.162 23.0521C160.126 24.8489 160.094 26.6406 160.1 28.4375C160.105 28.9792 159.798 28.9271 159.449 28.9271C155.74 28.8906 152.032 28.875 148.329 28.8021C147.756 28.7917 147.688 28.9687 147.699 29.4427C147.725 30.6146 147.745 31.7917 147.688 32.9583C147.662 33.5885 147.923 33.6875 148.454 33.6927C151.298 33.7083 154.141 33.776 156.99 33.7708C157.61 33.7708 157.771 33.9375 157.751 34.5417C157.699 36.1823 157.688 37.8229 157.719 39.4635C157.73 40.0156 157.521 40.0885 157.048 40.0833C154.199 40.0469 151.35 40.0521 148.506 40.0104C147.943 40 147.73 40.1094 147.756 40.7239C147.813 41.8437 147.803 42.9635 147.761 44.0833C147.745 44.6198 147.886 44.7969 148.449 44.7969C152.079 44.8125 155.709 44.8802 159.334 44.8906C159.964 44.8906 160.199 45.0156 160.173 45.6927C160.105 47.3281 160.089 48.9687 160.105 50.6042C160.11 51.1458 159.923 51.2552 159.433 51.25C156.298 51.2344 153.162 51.2448 150.032 51.2448V51.3281ZM126.938 21.7448C131.199 21.7344 134.464 22.7917 137.6 24.375C137.933 24.5417 137.923 24.6562 137.735 24.9375C136.589 26.651 135.261 28.2187 134.048 29.875C133.74 30.2969 133.495 30.125 133.199 29.9844C131.324 29.1094 129.417 28.3698 127.318 28.2396C126.402 28.1823 125.49 28.2604 124.646 28.6458C123.74 29.0625 123.568 29.8646 124.225 30.6094C125.011 31.5 126.021 32.1094 127.011 32.7396C128.964 33.9896 131.131 34.875 133.048 36.1771C133.631 36.5729 134.199 36.9948 134.74 37.4375C137.516 39.6927 138.183 42.6094 137.266 45.9375C136.37 49.1771 134.256 51.2239 130.923 51.9114C127.641 52.5937 124.433 52.0364 121.251 51.2396C119.636 50.8333 118.074 50.25 116.527 49.6302C116.1 49.4583 116.058 49.2969 116.24 48.901C117.011 47.1979 117.771 45.4896 118.495 43.7656C118.693 43.2969 118.896 43.3021 119.313 43.4635C121.548 44.3229 123.792 45.1667 126.162 45.5885C127.146 45.7604 128.141 45.8542 129.11 45.5364C130.235 45.1667 130.49 44.2083 129.761 43.276C128.417 41.5573 126.49 40.6614 124.646 39.6614C122.745 38.6302 120.813 37.6719 119.12 36.2969C115.631 33.4687 115.376 29.4114 117.266 25.9948C118.459 23.8385 120.548 23.0573 122.699 22.3958C124.303 21.901 125.964 21.7344 126.938 21.7448ZM109.615 42.6771C110.891 42.7864 112.162 42.9114 113.433 43.0104C113.798 43.0364 113.912 43.1406 113.896 43.5312C113.693 48.0312 111.048 51.0885 106.495 51.8542C103.673 52.3281 100.829 52.2552 98.0475 51.4635C94.2194 50.3698 91.7559 47.2239 91.7454 43.2396C91.7298 38.8906 91.6413 34.5364 91.9382 30.2031C92.2663 25.4062 94.8184 22.3333 100.199 21.7917C102.834 21.526 105.454 21.6406 108.016 22.3958C111.699 23.4739 113.657 26.6458 113.98 30.0885C114.011 30.4167 114.115 30.7604 113.563 30.8073C111.407 31 109.256 31.2083 107.105 31.4479C106.558 31.5052 106.407 31.3229 106.339 30.8229C106.173 29.5364 105.553 28.9062 104.282 28.6198C103.245 28.3906 102.209 28.4062 101.178 28.651C99.9329 28.9427 99.2767 29.7135 99.2819 31.0677C99.2923 35.0729 99.334 39.0833 99.4017 43.0885C99.4225 44.125 100.006 44.8489 100.995 45.1823C102.214 45.5885 103.459 45.6146 104.693 45.2708C105.917 44.9323 106.485 44.2135 106.449 42.9375C106.428 42.2917 106.636 42.125 107.235 42.2292C107.751 42.3229 108.271 42.3489 108.792 42.4062C109.021 42.625 109.381 42.4687 109.615 42.6771ZM189.058 42.6771C190.126 42.7864 191.188 42.9531 192.251 42.9896C192.87 43.0104 192.975 43.2135 192.928 43.7708C192.542 48.1771 190.131 50.9635 185.751 51.8073C182.876 52.3594 179.975 52.2812 177.141 51.4792C173.167 50.3489 170.766 47.1771 170.777 43.0573C170.782 38.974 170.787 34.8802 170.907 30.7969C171.001 27.7344 171.99 25.026 174.688 23.2239C175.99 22.3542 177.495 21.9792 179.032 21.8177C181.725 21.5312 184.396 21.6198 187.016 22.3854C190.87 23.5208 192.683 26.7135 193.068 30.2864C193.1 30.6042 192.99 30.7708 192.652 30.8021C190.443 31.0104 188.235 31.2187 186.032 31.4479C185.568 31.4948 185.417 31.4114 185.391 30.901C185.329 29.6823 184.667 28.9427 183.469 28.6562C182.391 28.3906 181.298 28.3802 180.214 28.651C178.975 28.9531 178.344 29.7083 178.35 30.9948C178.35 34.875 178.365 38.7552 178.402 42.6354C178.417 44.2916 179.173 45.0989 180.808 45.3802C181.641 45.5208 182.464 45.5208 183.298 45.375C184.751 45.1198 185.485 44.3541 185.485 42.9062C185.48 42.2917 185.662 42.1302 186.24 42.2292C186.751 42.3177 187.277 42.3489 187.792 42.4114C188.048 42.6198 188.355 42.5156 188.636 42.5469C188.792 42.5417 188.938 42.5781 189.058 42.6771ZM63 25.5C64.099 22.4271 64.9382 16.5156 66.0267 13.4323C66.5996 11.8073 67.2454 10.1979 67.709 8.48957C66.8444 8.45832 66.2454 9.02082 65.5319 9.2552C55.2246 12.6302 44.9173 16.0156 34.6152 19.3958C29.9902 20.9167 25.3704 22.4375 20.7454 23.9375C20.2246 24.1094 19.9486 24.3437 19.834 24.9219C19.4954 26.625 19.0527 28.3125 18.6882 30.0104C18.6048 30.3958 18.459 30.5833 18.0684 30.6875C17.0892 30.9479 16.1257 31.2656 15.0371 31.5937C15.3704 30.2969 15.6882 29.0781 15.9902 27.8594C16.4121 26.1979 16.86 24.5417 17.209 22.8646C17.3392 22.2552 17.6465 22.026 18.1829 21.8385C25.6048 19.2708 33.0215 16.6927 40.4382 14.1146C45.1309 12.4844 49.8704 10.9739 54.5111 9.20832C62.4017 6.20312 70.4382 3.6354 78.3809 0.786447C78.6204 0.703114 81.1198 0.125 81.5 0C80.8438 1.75521 80.5833 3.84896 80 5.5C79.6563 6.47396 79.5 7 78.3809 8.48957C78.3861 9.0052 75.8568 12.0971 75.5371 12.5C74.8965 13.3073 76.5 13.9323 75.5 14.5C75.5 15 73.7917 16.7083 73 17.5C72.1719 18.1979 71.2917 18.7656 70.5 19.5C69.8698 20.0729 69.6875 20.4844 69 21C68.4531 21.3906 67.9792 22.0417 67.5 22.5C67.0781 22.974 65.9902 23.0677 65.5319 23.5C65.0944 23.974 65 24 64.5 24.5C64.5 24.5 62.9554 25.6246 63 25.5ZM202.829 34.0156C202.829 37.4271 202.844 40.8385 202.813 44.25C202.808 44.8698 202.98 45.026 203.594 45.0208C206.985 44.9896 210.381 45.0208 213.777 44.9948C214.329 44.9896 214.48 45.1406 214.459 45.6823C214.386 47.401 214.35 49.1146 214.334 50.8333C214.334 51.2708 214.162 51.3437 213.782 51.3385C207.912 51.2552 202.042 51.1823 196.167 51.1302C195.683 51.1302 195.636 50.9427 195.631 50.5364C195.579 47.1562 195.506 43.7708 195.449 40.3906C195.35 34.6406 195.266 28.8906 195.157 23.1406C195.141 22.5625 195.266 22.3489 195.896 22.3385C197.928 22.2917 199.964 22.2083 201.99 22.0625C202.787 22.0052 202.98 22.2135 202.969 23.0104C202.923 26.6771 202.949 30.349 202.949 34.0156H202.829ZM71.0215 22.4114C70.334 24.7656 69.4382 27.0417 68.5944 29.3385C67.7298 31.6927 66.8652 34.0469 65.9954 36.3958C65.8809 36.8437 65.4434 36.8177 65.1309 36.9739C63.5944 37.5364 62.0527 38.1042 60.5007 38.6302C59.6569 38.901 58.8184 39.1979 57.9746 39.4583C57.6257 39.5625 57.2715 39.7135 56.9382 39.4167L59.3132 32.651C59.3079 32.4844 59.2663 32.3073 59.4017 32.1614C59.6934 31.9114 60.0267 31.7187 60.3392 31.4948C60.9329 31.1875 61.4746 30.8125 62.0059 30.4062C62.3809 30.1458 62.7663 29.8958 63.1361 29.6302C63.6621 29.2864 64.1413 28.8854 64.6517 28.5208C64.9954 28.1927 65.4329 27.9635 65.7298 27.5781C66.1934 27.151 66.7559 26.8489 67.1569 26.3594C67.5944 26 67.9017 25.5312 68.2611 25.1094C68.735 24.6406 69.209 24.1771 69.6621 23.6979C70.0111 23.2708 70.36 22.8385 70.7507 22.4427C70.834 22.3802 70.9173 22.3125 71.0215 22.4114Z" fill="#464444"/>
<path d="M266.458 43.7184C266.208 43.7861 266.297 44.0153 266.255 44.1716C265.214 48.333 262.432 50.7288 258.125 51.0466C253.672 51.3695 249.208 51.1455 244.745 51.2132C244.365 51.2184 244.219 51.0778 244.25 50.7132C244.26 50.6091 244.25 50.5049 244.25 50.4007C244.24 41.0778 244.229 31.7601 244.208 22.4372C244.208 21.958 244.198 21.5882 244.849 21.5986C249.516 21.6872 254.193 21.182 258.844 21.8591C260.781 22.1455 262.594 22.8278 263.969 24.2966C265.161 25.5726 265.969 27.0674 266.292 28.7966C266.318 28.9372 266.24 29.1247 266.458 29.182V29.4945C266.328 30.1716 266.328 30.8486 266.458 31.5257V32.1507C266.297 33.5101 265.896 34.7809 265.083 35.9007C264.87 36.1924 264.885 36.4736 265.078 36.7705C265.818 37.8851 266.354 39.0778 266.458 40.4372V40.7497C266.328 41.5309 266.328 42.3122 266.458 43.0934V43.7184ZM34.151 75.7653C34.0365 75.3434 33.6198 75.3018 33.3125 75.1455C22.7292 69.8747 12.1406 64.6091 1.55208 59.3382C1.05729 59.0882 0.609375 58.7497 0 58.3695C3.61458 56.6351 7.125 54.9424 10.6406 53.2549C10.8021 53.182 10.8229 53.2601 10.7812 53.3955C8.67708 55.0882 6.56771 56.7861 4.41667 58.5153C5.89583 59.557 7.57292 60.0466 9.15625 60.7132C17.5 64.2288 25.8646 67.7028 34.2083 71.2132C34.75 71.4372 35.1927 71.4528 35.7448 71.2184C42.0156 68.5413 48.2969 65.8955 54.5781 63.2393C54.7187 63.1768 54.8542 63.1038 55.026 63.0205C54.8333 62.6872 54.4792 62.7288 54.2135 62.6507C50.2656 61.4893 46.2865 60.4372 42.375 59.182C32.8437 56.1247 23.1719 53.5518 13.5833 50.6976C13.0417 50.5361 12.8698 50.3434 13.0625 49.7861C13.2917 49.1247 13.5156 48.4424 13.5833 47.7497C13.6927 46.6924 14.224 46.1663 15.2292 45.9216C16.0885 45.7184 16.9063 45.3591 17.849 45.0257C17.5156 46.4841 17.2448 47.8799 16.8594 49.2393C16.6927 49.833 16.8646 49.9841 17.3958 50.1195C24.401 51.9372 31.401 53.7705 38.401 55.6038C42.1771 56.5934 45.9896 57.4632 49.724 58.6038C54.6927 60.1195 59.7552 61.2705 64.7552 62.6663C64.7917 62.6768 64.8177 62.7288 64.9115 62.833C64.3021 63.0934 63.7188 63.3434 63.1354 63.5882C53.8177 67.4893 44.5052 71.3851 35.1979 75.2913C34.9792 75.3799 34.5677 75.3122 34.625 75.7653H34.151Z" fill="#464444"/>
<path d="M252.015 42.0882C252.015 41.458 252.041 40.833 252.005 40.2132C251.984 39.8539 252.041 39.6716 252.442 39.6872C253.849 39.7393 255.265 39.5674 256.666 39.8174C257.63 39.9841 258.474 40.3695 258.776 41.4164C259.224 42.9632 258.609 44.0466 257.026 44.3747C255.479 44.6976 253.901 44.4528 252.338 44.5153C251.963 44.5309 252.02 44.2653 252.02 44.0414C252.015 43.3903 252.02 42.7341 252.02 42.0882H252.015ZM254.406 32.9841C253.776 32.9841 253.151 32.9684 252.526 32.9945C252.14 33.0101 251.974 32.9111 251.974 32.4789C251.979 31.2861 251.937 30.0882 251.916 28.8955C251.911 28.6403 251.864 28.333 252.27 28.3539C253.88 28.4111 255.51 28.1507 257.104 28.557C258.515 28.9164 259.203 30.1351 258.786 31.4789C258.468 32.5101 257.609 32.8278 256.672 32.9216C255.922 32.9997 255.161 32.9372 254.406 32.9372V32.9841Z" fill="white"/>
<path d="M72.5552 57.8856C71.7933 58.1922 71.0027 58.3784 70.1883 58.4547C69.1206 57.9578 68.3322 57.0708 67.3505 56.4507C67.2631 56.3967 67.1759 56.3323 67.1044 56.2631C65.9982 55.1349 64.6529 54.7049 63.0957 54.9268C62.6216 54.927 62.1532 54.9065 61.6794 54.8964C61.2523 54.8924 60.8201 54.8832 60.3935 54.8532C60.2636 54.84 60.1392 54.8112 60.0258 54.7515C59.9434 54.7081 59.9084 54.6396 59.9261 54.5462C62.426 54.5738 64.9311 54.6067 67.431 54.6395C68.1795 54.4732 68.8438 54.5917 69.4528 55.0996C70.3334 55.8218 71.3157 56.4159 72.1855 57.1535C72.4004 57.3353 72.7567 57.4784 72.5552 57.8856Z" fill="#F6D128"/>
<path d="M53.1954 54.0477C53.9805 54.1218 54.7655 54.196 55.5505 54.2701C56.3572 54.5531 56.9323 55.1854 57.6045 55.6635C58.7539 56.48 59.8606 57.3425 60.994 58.1795C61.2144 58.3457 61.6027 58.4582 61.4008 58.8863C60.2855 58.9092 59.1899 58.7399 58.1059 58.5134C58.41 58.1813 58.0685 58.075 57.8839 57.9356C56.5362 56.8908 55.1402 55.9128 53.7872 54.8731C53.5103 54.6692 53.1387 54.5049 53.1954 54.0477Z" fill="#F5AB26"/>
<path d="M37.2278 52.439C33.7747 50.9428 30.5048 49.1639 27.8706 46.4088C27.6312 46.1536 27.4292 45.8575 27.2754 45.5C29.1934 46.9165 31.2956 47.9983 33.3925 49.0904C34.5271 49.8701 35.6295 50.6908 36.7426 51.5013C37.0502 51.732 37.4784 51.9287 37.3577 52.4523C37.3575 52.4627 37.3156 52.4722 37.2949 52.4665C37.2741 52.4661 37.2484 52.4499 37.2278 52.439Z" fill="#F2712B"/>
<path d="M61.401 58.8862C61.0047 58.1744 60.2341 57.913 59.6454 57.4315C58.3143 56.3402 56.8387 55.4281 55.5508 54.27C56.4349 54.3411 57.3191 54.4069 58.2033 54.4728C59.6828 55.6871 61.2911 56.7271 62.808 57.8953C63.095 58.115 63.3979 58.3247 63.5679 58.6565C63.6681 58.841 63.6853 59.0133 63.3884 59.0122C62.7748 58.9573 62.1525 59.069 61.5466 58.8997L61.4735 58.9086L61.401 58.8862Z" fill="#F5B224"/>
<path d="M63.221 54.7315C64.6099 54.5842 65.8451 54.7982 66.9272 55.8425C67.9276 56.8017 69.211 57.4439 70.1895 58.46C69.4239 58.6936 68.6351 58.7913 67.8369 58.8471C67.7718 58.481 67.4944 58.2979 67.2227 58.0942C66.0692 57.2255 64.8888 56.3927 63.7461 55.5086C63.4897 55.3155 63.1546 55.152 63.221 54.7315Z" fill="#F6C828"/>
<path d="M57.0219 58.3443C56.2722 58.323 55.546 58.1771 54.8316 57.9639C53.0263 56.8832 51.4143 55.5306 49.7378 54.2704C49.5072 54.0935 49.2305 53.8792 49.2905 53.5106C50.0175 53.62 50.7495 53.7347 51.4765 53.8441C53.3433 54.9781 55.0059 56.3995 56.7652 57.6824C56.9703 57.8378 57.1535 58.0397 57.0219 58.3443Z" fill="#F49F27"/>
<path d="M49.291 53.5052C50.1529 54.6073 51.4266 55.2181 52.4651 56.1052C53.2273 56.7571 54.161 57.1887 54.8321 57.9584C53.7669 57.8314 52.7244 57.6163 51.7053 57.2818C51.4446 56.8074 50.9598 56.5782 50.5495 56.2776C49.4569 55.4832 48.3697 54.6784 47.3039 53.8533C47.0835 53.6819 46.7273 53.5336 46.9445 53.1215C47.7283 53.2529 48.507 53.379 49.291 53.5052Z" fill="#F49827"/>
<path d="M44.5179 55.2576C43.3884 54.9728 42.2975 54.5848 41.2451 54.1037C40.0687 53.0887 38.742 52.2788 37.5386 51.3048C37.2877 51.1015 36.8264 50.9926 36.9725 50.4956C38.1627 50.8702 39.3529 51.2396 40.5484 51.6091C41.7517 52.5882 43.046 53.4495 44.2707 54.3979C44.4962 54.5694 44.7586 54.7261 44.8461 55.0145C44.9436 55.3292 44.776 55.3725 44.5179 55.2576Z" fill="#F27F27"/>
<path d="M63.5931 58.9331C62.6022 57.7657 61.2311 57.0851 60.0795 56.1279C59.4398 55.5932 58.5226 55.3651 58.2031 54.4727C58.3644 54.4813 58.5257 54.49 58.6871 54.4987C59.0906 54.6271 59.5267 54.4542 59.9241 54.6294C60.028 54.642 60.1318 54.6599 60.2358 54.6726C61.6609 55.7502 63.0967 56.8178 64.5326 57.8748C64.7224 58.0144 64.9122 58.1539 65.0806 58.3138C65.2492 58.4685 65.4698 58.6295 65.3598 58.898C65.2606 59.1512 64.9971 59.0517 64.8099 59.0373C64.4043 59.0026 63.9849 59.1238 63.5931 58.9331Z" fill="#F5B725"/>
<path d="M75.6126 54.0336C77.6148 53.7119 79.6117 53.3901 81.8283 53.0313C80.4675 54.294 79.0889 55.1761 77.6094 55.905C77.0172 55.5849 76.4951 55.1517 75.978 54.7291C75.7732 54.5632 75.5009 54.3854 75.6126 54.0336Z" fill="#F5EB27"/>
<path d="M44.5174 55.2574C45.0185 54.966 44.5111 54.8196 44.3933 54.7286C43.5016 54.0374 42.5672 53.3974 41.6757 52.701C41.2659 52.3797 40.6966 52.2008 40.5479 51.6089C41.3766 51.8298 42.2106 52.0509 43.0446 52.272C44.6225 53.2696 46.0502 54.4724 47.5637 55.5572C47.7843 55.7182 48.0404 55.9216 47.8142 56.2658C46.6779 56.0539 45.5866 55.6815 44.5174 55.2574Z" fill="#F38628"/>
<path d="M36.9715 50.5008C37.5076 51.252 38.3539 51.6297 39.0451 52.1915C39.6852 52.7105 40.3841 53.1579 41.0454 53.6566C41.1736 53.7531 41.4689 53.8272 41.239 54.1036C39.8302 53.7191 38.5204 53.0971 37.2269 52.439C37.2682 51.971 36.8646 51.8425 36.5932 51.6231C35.5332 50.7669 34.2857 50.1514 33.3916 49.0903C34.585 49.5587 35.7783 50.0272 36.9715 50.5008Z" fill="#F27828"/>
<path d="M70.217 54.5221C71.2258 54.3666 72.2333 54.2736 73.249 54.2798C74.1124 54.8297 74.8846 55.5026 75.7212 56.0884C75.9061 56.2122 76.0794 56.3878 76.0214 56.6627C75.4009 56.9307 74.8 57.2616 74.13 57.4088C72.8542 56.4124 71.5194 55.4929 70.217 54.5221Z" fill="#F5DE27"/>
<path d="M63.5935 58.9332C63.8278 58.9382 64.0616 58.9693 64.2965 58.9483C64.6149 58.9186 65.0996 59.153 65.206 58.8063C65.3065 58.4907 64.7995 58.3287 64.5482 58.141C63.3031 57.1713 62.0207 56.2426 60.7434 55.3139C60.5075 55.1422 60.2552 55.0013 60.2362 54.6727C60.7101 54.6829 61.1839 54.693 61.6527 54.6979C63.3885 55.8604 65.0119 57.1663 66.6837 58.4056C66.94 58.5986 67.1061 58.8679 66.5832 58.9609C64.9028 59.0967 63.2231 59.2013 61.5469 58.8997C62.2291 58.9091 62.9114 58.9186 63.5935 58.9332Z" fill="#F4BD25"/>
<path d="M70.2171 54.5223C71.3004 54.78 71.9902 55.6491 72.8528 56.2407C73.3148 56.558 73.9779 56.7337 74.1301 57.409C73.6205 57.6064 73.1154 57.8405 72.557 57.8858C72.2735 57.2598 71.6487 57.0015 71.157 56.6055C70.4093 56.0059 69.5973 55.4884 68.8547 54.8942C68.404 54.5303 67.9049 54.728 67.4327 54.6397C68.3538 54.4459 69.2896 54.5337 70.2171 54.5223Z" fill="#F5D828"/>
<path d="M46.9431 53.1267C47.3932 54.0011 48.324 54.3233 49.0304 54.9062C49.8648 55.5962 50.779 56.2045 51.6453 56.8638C51.7581 56.9444 52.1772 57.0784 51.704 57.2819C51.0077 57.1992 50.3286 57.044 49.6831 56.7801C48.393 55.7209 46.9956 54.8053 45.6841 53.7769C45.3409 53.5039 44.8239 53.3209 44.92 52.7238C45.6064 52.7854 46.2806 52.9249 46.9431 53.1267Z" fill="#F49128"/>
<path d="M57.0227 58.3442C56.7507 57.6663 56.0788 57.4175 55.5561 57.0156C54.3365 56.0725 53.0743 55.1702 51.8334 54.2476C51.695 54.1404 51.5942 53.982 51.4774 53.844C52.0614 53.8149 52.6266 53.9416 53.1973 54.0476C53.9789 55.0125 55.1081 55.5577 56.0555 56.3178C56.9159 57.0083 57.8191 57.6476 58.7061 58.3126C58.5279 58.6057 58.2963 58.4705 58.1079 58.5134C57.7383 58.5002 57.3624 58.539 57.0227 58.3442Z" fill="#F5A426"/>
<path d="M66.5829 58.961C66.9102 58.7596 66.7508 58.6624 66.52 58.4908C65.089 57.4442 63.669 56.3719 62.2383 55.3097C62.0076 55.138 61.798 54.9512 61.6523 54.698L63.2197 54.7316C63.9856 55.6962 65.1101 56.2204 66.0419 56.9802C66.5795 57.4189 67.1705 57.7963 67.7187 58.2248C67.9084 58.3695 68.2586 58.5541 67.8356 58.8472C67.418 58.8851 67.0004 58.9231 66.5829 58.961Z" fill="#F5C226"/>
<path d="M76.0206 56.6628C75.4534 55.9057 74.5543 55.5634 73.8694 54.9496C73.6394 54.7415 73.388 54.5642 73.2534 54.28C74.024 54.0569 74.8336 54.1993 75.6134 54.0337C75.9392 54.6293 76.5482 54.8977 77.0395 55.3093C77.2442 55.4804 77.5493 55.586 77.6102 55.905C77.0388 56.0699 76.617 56.5453 76.0206 56.6628Z" fill="#F5E327"/>
<path d="M44.9149 52.7237C45.3353 53.5245 46.1722 53.8551 46.8276 54.3849C47.6521 55.0485 48.5194 55.661 49.3761 56.2785C49.5608 56.4127 49.6934 56.5458 49.6831 56.78C49.0224 56.7398 48.418 56.5028 47.8135 56.2658C47.5865 55.4379 46.7516 55.2584 46.1938 54.788C45.1706 53.9169 43.9761 53.2609 43.0439 52.272C43.6711 52.4209 44.2931 52.5697 44.9149 52.7237Z" fill="#F48C28"/>
<path d="M57.3186 48.235C58.09 48.229 58.8616 48.2179 59.6331 48.2119C61.2635 49.0262 62.6699 50.1563 64.0547 51.3117C64.151 51.393 64.1827 51.5399 64.1106 51.6731C62.8166 51.8808 61.5179 51.9163 60.2116 51.863C59.4151 51.9985 58.7147 51.9025 58.067 51.3133C57.2273 50.5405 56.2356 49.9556 55.3256 49.2587C55.0765 49.0682 54.64 48.8715 54.7719 48.5058C54.9205 48.1042 55.3694 48.4003 55.6786 48.3479C55.7992 48.3258 55.9387 48.3617 56.0605 48.3031C56.4781 48.2804 56.8957 48.2576 57.3186 48.235Z" fill="#E63332"/>
<path d="M56.0611 48.3031C55.7127 48.5992 55.245 48.2399 54.8551 48.5294C55.2745 49.0903 55.8738 49.407 56.4028 49.7995C57.2119 50.3941 58.0479 50.9635 58.7971 51.6342C59.207 52.0072 59.7471 51.7436 60.2122 51.8631C58.4145 52.0177 56.6309 51.9019 54.8517 51.6507C53.9961 51.3621 53.3769 50.7008 52.6473 50.2235C52.0607 49.8395 51.496 49.4197 50.9365 49.0001C50.7586 48.864 50.4868 48.73 50.5736 48.4671C50.6601 48.2145 50.9359 48.3851 51.1246 48.3496C51.2032 48.3366 51.2813 48.3392 51.3552 48.3103C52.9238 48.3097 54.4925 48.3038 56.0611 48.3031Z" fill="#EA3B31"/>
<path d="M51.3494 48.3103C51.1706 48.5181 50.895 48.3423 50.6341 48.5109C52.0533 49.5684 53.4522 50.6097 54.8511 51.6509C53.1716 51.5385 51.5125 51.2808 49.8591 51.0077C48.9937 50.2237 47.9978 49.6073 47.0724 48.9048C46.8284 48.7196 46.4316 48.5815 46.6601 48.1304L51.3494 48.3103Z" fill="#EB432E"/>
<path d="M64.0412 47.8927C64.4559 47.6406 64.9683 47.9075 65.3834 47.6449C65.6749 47.6545 65.9718 47.659 66.2685 47.6688C66.6805 47.4999 67.0457 47.6473 67.3555 47.892C68.3359 48.6642 69.3817 49.3499 70.3732 50.1015C70.5767 50.2541 70.9165 50.3799 70.7216 50.7591C69.9394 50.9367 69.1665 51.1459 68.3581 51.1662C66.8755 50.1327 65.3387 49.1651 64.0412 47.8927Z" fill="#DA303B"/>
<path d="M64.1112 51.673C63.6615 50.9235 62.8537 50.6104 62.2034 50.0992C61.3704 49.4413 60.4938 48.8393 59.6337 48.2118C60.4781 48.0467 61.3332 48.0331 62.1881 48.0247C63.3339 48.8387 64.4523 49.6936 65.6144 50.4873C65.8081 50.6187 66.007 50.7503 66.1359 50.9526C66.3641 51.304 66.2179 51.4712 65.8459 51.5319C65.2704 51.6016 64.698 51.734 64.1112 51.673Z" fill="#E13235"/>
<path d="M41.231 47.6134C41.9539 47.658 42.6785 47.6505 43.3749 47.8661C44.3088 48.3085 45.1108 48.9601 45.9081 49.596C46.1569 49.7969 46.4145 50.0451 46.4178 50.4204C44.7441 50.131 43.0771 49.7949 41.4401 49.34C40.8518 49.008 40.4047 48.4983 39.8546 48.1102C39.6357 47.9519 39.3927 47.7355 39.6276 47.4045L40.412 47.4823C40.6739 47.6004 40.9748 47.4799 41.231 47.6134Z" fill="#EE522D"/>
<path d="M65.8456 51.532C66.3461 51.2097 66.0194 51.0009 65.7342 50.7988C64.711 50.0617 63.6773 49.3243 62.6487 48.5922C62.4398 48.4447 62.1773 48.3475 62.1878 48.0247C62.8057 47.9356 63.4185 47.841 64.0421 47.8928C65.5248 48.9211 67.0618 49.8835 68.359 51.1663C67.5335 51.3893 66.6872 51.4554 65.8456 51.532Z" fill="#DE3038"/>
<path d="M46.4169 50.4205C45.6249 49.3054 44.3014 48.8242 43.374 47.8662L44.4766 47.9336C44.9929 48.0809 45.5355 47.9006 46.0451 48.0945C46.2477 48.1116 46.4507 48.1183 46.6588 48.1303C46.643 48.4529 46.9002 48.5551 47.109 48.7027C47.8526 49.2273 48.5912 49.7466 49.3189 50.2812C49.5681 50.4665 49.8276 50.6574 49.8578 51.0076C48.7127 50.8085 47.5622 50.6144 46.4169 50.4205Z" fill="#ED4A2D"/>
<path d="M70.7216 50.7592C70.6203 50.3546 70.2327 50.2533 69.9531 50.0409C69.0581 49.3653 68.1574 48.7052 67.2567 48.0451C66.9668 47.8272 66.6663 47.6141 66.2685 47.6688C66.9881 47.4944 67.7201 47.4194 68.46 47.4228C68.8248 47.2628 69.1265 47.4395 69.3857 47.6408C70.2951 48.3533 71.2641 48.9948 72.1899 49.6869C72.4086 49.8505 72.6799 50.0001 72.6162 50.3523C71.9864 50.488 71.3514 50.6235 70.7216 50.7592Z" fill="#D5303F"/>
<path d="M78.7981 48.5592C78.1413 48.8816 77.4418 49.0775 76.7329 49.2419C75.9773 48.6074 75.1563 48.0593 74.3845 47.4399C74.1203 47.2332 73.8132 47.0616 73.8212 46.6606C74.5892 46.4409 75.3748 46.3208 76.169 46.2582C76.7785 46.2626 77.0469 46.8186 77.4968 47.0835C77.8701 47.2989 78.1937 47.6014 78.534 47.8731C78.7421 48.0415 79.0231 48.2122 78.7981 48.5592Z" fill="#C72F48"/>
<path d="M72.617 50.3525C71.8373 49.4983 70.8017 48.9797 69.8968 48.2882C69.4545 47.9506 69.1067 47.4337 68.4609 47.423C69.0816 47.2453 69.7194 47.1828 70.3607 47.1726C70.7932 47.0148 71.179 47.1682 71.531 47.3986C72.4237 47.9855 73.2455 48.6691 74.1004 49.2964C74.2938 49.4382 74.5645 49.6034 74.356 49.9249C73.7781 50.0675 73.195 50.2099 72.617 50.3525Z" fill="#D22F42"/>
<path d="M78.7985 48.5592C78.7883 48.0742 78.322 47.9912 78.0432 47.7528C77.4294 47.2428 76.7941 46.7529 76.1694 46.2582C76.8491 46.0304 77.5452 45.9386 78.2512 45.8627C79.0299 46.2687 79.6943 46.8272 80.364 47.3807C80.5365 47.5219 80.7447 47.6903 80.5378 47.9597C79.9771 48.2122 79.4067 48.4437 78.7985 48.5592Z" fill="#C22F4C"/>
<path d="M84.3533 46.3602C83.762 46.7524 83.1027 46.9914 82.4386 47.2197C81.6169 47.0104 81.026 46.4386 80.4181 45.908C80.2863 45.7942 80.1823 45.6293 80.2929 45.4349C81.0616 45.1943 81.839 45.0062 82.6397 44.9022C83.3969 45.1719 84.1 45.5024 84.3533 46.3602Z" fill="#B72F52"/>
<path d="M38.0244 48.4462C35.8023 47.8782 33.6196 47.2178 31.5013 46.3458C31.3322 46.2568 31.2168 46.1228 31.3374 45.9391C31.4309 45.7911 31.586 45.8274 31.7299 45.8895C33.215 46.2092 34.7055 46.5238 36.1906 46.8435C36.7333 47.1375 37.2811 47.4369 37.7474 47.8378C37.9248 47.9896 38.2335 48.1091 38.0244 48.4462Z" fill="#F05F2D"/>
<path d="M80.2925 45.4348C80.7963 46.2799 81.7501 46.5926 82.4383 47.2197C81.8049 47.4647 81.1714 47.7149 80.538 47.9599C80.3288 47.3485 79.7257 47.1463 79.29 46.7673C78.9456 46.4641 78.4657 46.3181 78.2514 45.8629C78.9156 45.6294 79.602 45.5164 80.2925 45.4348Z" fill="#BC2F4E"/>
<path d="M73.8211 46.6607C74.4944 47.4228 75.3792 47.9313 76.1718 48.5513C76.4209 48.7419 76.7189 48.8715 76.7328 49.242C76.2828 49.4565 75.7996 49.5709 75.3121 49.6591C74.796 48.871 73.9165 48.519 73.2212 47.949C72.8458 47.6397 72.3787 47.4211 72.2237 46.9054C72.7448 46.7453 73.274 46.6584 73.8211 46.6607Z" fill="#CA3045"/>
<path d="M38.0253 48.4462C37.7769 47.9169 37.2194 47.7527 36.8245 47.401C36.6171 47.2118 36.3014 47.1441 36.1914 46.8435C37.337 47.027 38.4825 47.2157 39.628 47.4044C39.6211 47.7742 39.8868 47.934 40.1519 48.1147C40.6516 48.4489 41.1135 48.8237 41.4405 49.3399C40.2804 49.1194 39.1384 48.8266 38.0253 48.4462Z" fill="#EF592D"/>
<path d="M72.2252 46.9053C73.101 47.6896 74.0963 48.3268 75.0428 49.0196C75.2465 49.167 75.6073 49.2883 75.3137 49.6591C74.9981 49.7477 74.6773 49.8362 74.3565 49.9247C73.7248 49.0077 72.7022 48.5676 71.8699 47.8889C71.4333 47.5359 71.0042 47.1154 70.3611 47.1776C70.9666 46.9891 71.594 46.9263 72.2252 46.9053Z" fill="#CE3144"/>
<path d="M84.3522 46.3601C83.9255 45.7051 83.1847 45.415 82.6387 44.9021C83.3458 44.6334 84.0807 44.4699 84.8299 44.3486C85.7098 44.3723 86.238 44.7909 86.2675 45.4797C85.642 45.8031 85.0554 46.2112 84.3522 46.3601Z" fill="#B23057"/>
<path d="M91.3827 42.526C90.2869 43.0477 89.4936 44.0378 88.3333 44.4583C87.806 44.3316 87.4517 44.0125 87.2598 43.506C88.5715 43.0748 89.8885 42.6438 91.2002 42.2126C91.4929 42.1857 91.4883 42.3263 91.3827 42.526Z" fill="#A63160"/>
<path d="M87.2601 43.506C87.6198 43.82 87.9741 44.1391 88.3336 44.4584C87.6449 44.8005 87.0297 45.2858 86.2676 45.4849C85.9589 44.8859 85.4651 44.531 84.8301 44.3486C85.6366 44.0676 86.4484 43.7868 87.2601 43.506Z" fill="#AD305B"/>
<path d="M31.73 45.8948C31.3804 45.9094 31.3435 46.0801 31.5016 46.3459C30.5983 46.0817 29.7348 45.7147 28.8775 45.3218C28.8718 45.1757 28.9161 45.099 29.075 45.1771C29.9583 45.4146 30.8469 45.6521 31.73 45.8948Z" fill="#F1692F"/>
<path d="M91.3834 42.526C91.3829 42.3853 91.329 42.2793 91.2009 42.2126C91.4228 42.1209 91.6447 42.0291 91.8718 41.9376C92.0359 41.8596 92.1887 41.8073 92.1743 42.0882C91.9186 42.257 91.7076 42.495 91.3834 42.526Z" fill="#A23869"/>
<path d="M92.1695 42.0879C92.0721 42.0378 91.9695 41.9876 91.8722 41.9375C92.0996 41.8355 92.3272 41.7283 92.5813 41.6064C92.6159 41.9827 92.3447 41.9895 92.1695 42.0879Z" fill="#B05B83"/>
<path d="M29.0742 45.177C29.01 45.227 28.9458 45.277 28.8766 45.3217C28.6758 45.2473 28.4802 45.1732 28.1918 45.0699C28.5866 44.9474 28.84 45.0078 29.0742 45.177Z" fill="#F37637"/>
<path d="M66.8799 41.6136C65.4193 41.9213 63.9587 42.2289 62.4929 42.5366C61.3007 41.6044 60.0414 40.7823 58.7096 40.0548C58.3793 39.869 57.8874 39.7521 58.0716 39.171C58.7274 38.8166 59.548 38.879 60.1347 38.3526C61.0699 38.3776 61.8657 37.8707 62.7367 37.6559C63.06 37.5753 63.3832 37.4739 63.7012 37.3829C63.9615 37.2453 64.2022 37.3064 64.4382 37.4459C65.8808 38.3346 67.3802 39.1237 68.8279 40.002C69.0954 40.1621 69.3682 40.3274 69.4488 40.6664C68.871 40.9681 68.2186 41.0509 67.6034 41.2222C67.3166 41.3025 67.0876 41.4242 66.8799 41.6136Z" fill="#693597"/>
<path d="M68.2768 35.6699C68.5841 35.5372 68.8914 35.3993 69.2039 35.2614C70.5063 34.7354 71.8087 34.2094 73.1163 33.6834C74.7053 34.6025 76.2893 35.5321 77.8783 36.4512C78.0986 36.5803 78.3293 36.7146 78.4355 36.9698C77.0056 37.9511 75.4433 38.6721 73.8068 39.2317C72.134 38.2871 70.4767 37.3162 68.8091 36.3611C68.5521 36.2113 68.2377 36.0672 68.2768 35.6699Z" fill="#5D3798"/>
<path d="M68.2748 35.6699C69.1742 36.5675 70.3992 36.9562 71.4278 37.6545C72.215 38.1872 73.1884 38.4418 73.8049 39.2317C72.3987 39.8576 70.9444 40.3324 69.4475 40.6664C68.0354 39.6573 66.4891 38.8738 64.9841 38.0272C64.5699 37.8002 64.2688 37.3164 63.6999 37.3829C65.2266 36.8084 66.7481 36.2392 68.2748 35.6699Z" fill="#623697"/>
<path d="M58.0701 39.171C58.1149 39.6148 58.4814 39.7429 58.8064 39.9026C59.9595 40.4642 60.9833 41.2304 62.0537 41.9232C62.2635 42.0576 62.4789 42.239 62.4914 42.5366C61.1351 42.8175 59.784 43.0982 58.4277 43.3791L56.6893 43.5528C56.1358 43.5879 55.8453 43.1092 55.4258 42.8822C54.5346 42.4129 53.6226 41.9594 52.8709 41.2697C52.6817 41.0986 52.3358 40.9285 52.7307 40.6229C54.5088 40.1407 56.292 39.6532 58.0701 39.171Z" fill="#703498"/>
<path d="M87.0756 30.1726C86.0342 31.449 84.7613 32.4763 83.4673 33.4776C83.2231 33.6673 83.0182 33.4963 82.8242 33.3879C81.7545 32.7892 80.7053 32.1381 79.6355 31.5341C79.3891 31.4 79.0225 31.2562 79.2285 30.8265C80.8421 29.9745 82.461 29.1277 84.0799 28.2757C85.1077 28.859 86.2131 29.3269 87.0756 30.1726Z" fill="#4E3B99"/>
<path d="M52.7306 40.623C52.7562 41.3123 53.3891 41.4387 53.809 41.7336C54.7381 42.3855 55.8274 42.7908 56.6892 43.5529C54.5712 43.9799 52.4312 44.2399 50.2748 44.3903C49.4589 44.2444 48.963 43.5268 48.2141 43.2498C47.9313 43.1472 47.6636 42.961 47.4116 42.7799C47.165 42.6091 46.8661 42.4492 46.9314 42.0622C48.861 41.579 50.7635 40.9654 52.7306 40.623Z" fill="#773297"/>
<path d="M78.4352 36.9698C76.8461 36.0507 75.2571 35.1316 73.6628 34.2178C73.4269 34.0836 73.2221 33.9335 73.1107 33.6835C74.1576 33.2167 75.1725 32.6718 76.2671 32.3091C77.6776 33.0936 79.0779 33.9043 80.473 34.7254C80.7247 34.87 81.0653 35.0296 80.8644 35.4489C80.1375 36.0911 79.2573 36.4837 78.4352 36.9698Z" fill="#573898"/>
<path d="M80.8622 35.4488C80.5227 34.6884 79.6966 34.5791 79.1034 34.1548C78.1847 33.4923 77.0283 33.2024 76.2648 32.3091C77.2539 31.8113 78.2379 31.3188 79.2271 30.8263C79.2236 31.0771 79.4228 31.1854 79.5959 31.2887C80.886 32.0218 82.176 32.7496 83.466 33.4775C82.6665 34.2194 81.7881 34.8679 80.8622 35.4488Z" fill="#533998"/>
<path d="M87.0756 30.1725C86.0581 29.5682 84.9424 29.1213 84.0799 28.2757C85.443 27.4567 86.8114 26.6378 88.1745 25.8188C88.8505 26.1382 89.5163 26.4784 90.058 27.018C89.2303 28.2251 88.1819 29.23 87.0756 30.1725Z" fill="#483D99"/>
<path d="M38.7556 43.2302C40.1179 43.0695 41.4802 42.8983 42.8477 42.7324C44.0803 43.4606 45.2353 44.3199 46.6433 44.7179C44.3936 44.9838 42.1323 45.0827 39.8701 45.0458C39.2781 44.7991 38.7325 44.4528 38.1922 44.1169C37.9194 43.9463 37.5996 43.7813 37.6595 43.3682C37.7011 43.3314 37.7428 43.3259 37.79 43.3517C38.0972 43.1981 38.4431 43.3629 38.7556 43.2302Z" fill="#823096"/>
<path d="M46.6417 44.7178C45.0584 44.6554 43.9446 43.7122 42.8461 42.7324C44.2081 42.509 45.5648 42.2856 46.9319 42.0622C47.2019 42.5879 47.7465 42.7828 48.2079 43.0304C48.9419 43.4277 49.6344 43.867 50.2753 44.3903C49.0752 44.6021 47.8641 44.7252 46.6417 44.7178Z" fill="#7E3197"/>
<path d="M90.0589 27.0181C89.3777 26.7041 88.6861 26.4005 88.1754 25.8189C90.1717 24.3793 92.1627 22.9397 94.1589 21.5001C92.8973 23.4205 91.7773 25.4393 90.0589 27.0181Z" fill="#433F99"/>
<path d="M37.6588 43.3684C38.0077 43.9825 38.6775 44.1503 39.218 44.5071C39.4541 44.6674 39.7213 44.7806 39.8694 45.046C38.0834 45.1364 36.3016 45.0649 34.5193 44.9203C33.9542 44.783 33.5491 44.3679 33.077 44.0785C32.9039 43.97 32.7721 43.7881 32.9481 43.5622C34.5201 43.4941 36.0868 43.4313 37.6588 43.3684Z" fill="#873097"/>
<path d="M32.9476 43.5622C32.9985 44.1261 33.5936 44.0698 33.883 44.376C34.0724 44.5785 34.3033 44.7389 34.5188 44.9202C31.6444 44.7412 28.8107 44.3895 26.1436 43.1799C28.407 43.4049 30.675 43.5254 32.9476 43.5622Z" fill="#8C3097"/>
<path d="M77.5133 12.501C78.4546 11.3254 79.6209 10.3252 80.3219 8.95799C81.3359 8.12057 81.942 6.92865 82.9968 5.80926C82.2952 8.78188 81.477 11.4726 80.1296 13.9831C79.3213 13.9931 77.7505 13.1017 77.5133 12.501Z" fill="#4A82CA"/>
<path d="M72.9042 17.1649C73.6688 16.4137 74.3622 15.5919 75.2133 14.9222C76.3696 15.4956 77.6094 15.9248 78.615 16.7713C78.2468 17.7507 77.611 18.5744 76.9907 19.4039C76.7867 19.544 76.5842 19.4796 76.3986 19.379C75.3994 18.8161 74.3386 18.3718 73.3393 17.8089C73.1024 17.6751 72.8024 17.5445 72.9042 17.1649Z" fill="#4B85C6"/>
<path d="M72.9048 17.165C73.0058 17.2838 73.0791 17.4489 73.2082 17.5109C74.462 18.1504 75.7267 18.7746 76.9913 19.404C76.5894 20.1358 76.09 20.8013 75.5138 21.4066C75.2778 21.5614 75.0558 21.4544 74.8494 21.3479C73.7094 20.7593 72.5302 20.2429 71.4293 19.5822C71.1927 19.4379 70.7967 19.3566 70.9793 18.9115C71.6229 18.3294 72.2612 17.7471 72.9048 17.165Z" fill="#4C87C2"/>
<path d="M78.6135 16.7711C77.4629 16.1822 76.2173 15.7738 75.2066 14.9219C75.9783 14.1132 76.7447 13.3096 77.5112 12.5007C78.2418 13.2541 79.2739 13.4561 80.1273 13.988C79.7328 14.9718 79.2606 15.9216 78.6135 16.7711Z" fill="#4A83C8"/>
<path d="M70.5738 26.7627C70.1535 27.2577 69.6276 27.6128 69.0763 27.9409C67.8827 27.3873 66.6614 26.8747 65.5898 26.1205C64.9746 25.6857 64.2314 25.4722 63.6823 24.9399C64.1701 24.4681 64.718 24.0822 65.2811 23.7126C66.6229 24.2291 67.9083 24.8645 69.1214 25.6234C69.4298 25.8172 69.7328 26.0161 70.0576 26.1895C70.2846 26.3072 70.6342 26.3659 70.5738 26.7627Z" fill="#5093B1"/>
<path d="M70.9769 18.9113C71.431 19.6189 72.2498 19.7666 72.9089 20.1452C73.743 20.624 74.6436 20.9948 75.5115 21.4064C75.1654 21.8777 74.8247 22.3439 74.4787 22.8099C74.4092 22.8495 74.3451 22.8842 74.2756 22.9238C74.0337 23.0995 73.8179 22.9612 73.617 22.8496C72.4271 22.1807 71.1534 21.6664 69.9858 20.9615C69.7233 20.8059 69.2803 20.7178 69.5011 20.2267C69.9524 19.7484 70.4395 19.2975 70.9769 18.9113Z" fill="#4C89BE"/>
<path d="M67.9423 28.8479C67.4611 29.2779 66.9398 29.6542 66.3635 29.9447C64.8333 29.0966 63.2754 28.2948 61.7116 27.5086C61.469 27.3904 61.1522 27.2908 61.2333 26.8999C61.7173 26.5434 62.2064 26.1923 62.6851 25.8357C64.2202 26.6944 65.7892 27.4808 67.3637 28.2568C67.6218 28.386 67.8849 28.5207 67.9423 28.8479Z" fill="#5297AA"/>
<path d="M70.5732 26.7626C69.3797 26.0464 68.2469 25.2377 66.9535 24.686C66.3638 24.4304 65.7586 24.1691 65.2805 23.7125C65.5027 23.3421 66.0197 23.2543 66.1347 22.7911C66.2881 22.7542 66.4364 22.7119 66.5899 22.6698C68.2431 23.2911 69.7218 24.2686 71.3297 24.9881C71.5416 25.0843 71.8259 25.2143 71.7252 25.5625C71.4007 26.0135 71.0656 26.4694 70.5732 26.7626Z" fill="#4F91B4"/>
<path d="M65.2495 30.6686C64.7 31.1017 64.1158 31.4758 63.4716 31.7588C61.9524 31.0528 60.5008 30.2073 58.9818 29.4961C58.7184 29.3719 58.3763 29.2452 58.4742 28.8234C58.963 28.4776 59.4519 28.1317 59.9406 27.7911C61.4852 28.6816 63.1079 29.4278 64.6802 30.272C64.8864 30.3838 65.1313 30.4339 65.2495 30.6686Z" fill="#579DA1"/>
<path d="M67.9424 28.8478C66.7665 28.2318 65.585 27.6261 64.4151 26.9893C63.8069 26.6597 63.0775 26.5044 62.6852 25.8356C62.833 25.3316 63.3249 25.2114 63.6854 24.94C64.4233 25.1533 65.0784 25.495 65.6866 25.982C66.1925 26.3922 66.8195 26.6281 67.4191 26.8997C68.0137 27.166 68.6072 27.4637 69.0739 27.9461C68.8026 28.3778 68.3448 28.5778 67.9424 28.8478Z" fill="#5195AE"/>
<path d="M65.2487 30.6685C63.4656 30.0115 61.8842 28.9676 60.1741 28.166C60.014 28.0873 59.9448 27.9591 59.9399 27.791C60.3695 27.4904 60.8043 27.1953 61.2338 26.8999C61.3603 27.1979 61.6519 27.2653 61.9098 27.3997C63.2207 28.0569 64.526 28.7244 65.8313 29.3919C66.0738 29.5153 66.2622 29.6894 66.364 29.9446C66.0538 30.2806 65.629 30.4345 65.2487 30.6685Z" fill="#559AA6"/>
<path d="M59.9011 33.7552C59.3142 34.0506 58.7273 34.346 58.1404 34.6414C56.8644 33.8804 55.499 33.2844 54.2176 32.5285C53.9552 32.3729 53.6328 32.2836 53.4642 31.9894C54.0584 31.6313 54.6475 31.2678 55.2419 30.9044C56.5153 31.744 57.9509 32.2794 59.2577 33.0624C59.5303 33.2288 59.9265 33.3048 59.9011 33.7552Z" fill="#60A791"/>
<path d="M53.4643 31.9892C54.9298 32.7302 56.3955 33.466 57.8611 34.207C58.0367 34.2915 58.1366 34.4417 58.1405 34.6412C57.6321 34.9444 57.099 35.1996 56.5313 35.3907C55.018 34.5065 53.3596 33.885 51.897 32.8976C52.4212 32.5948 52.9454 32.2921 53.4643 31.9892Z" fill="#65AB8A"/>
<path d="M54.9308 36.1197C54.3649 36.4158 53.789 36.6958 53.1697 36.859C52.1708 36.1281 51.0102 35.6858 49.9384 35.0942C49.65 34.9325 49.1961 34.8546 49.2915 34.3488C49.6848 34.0365 50.1325 33.8257 50.5951 33.6416C51.1791 33.5927 51.6292 33.9434 52.1149 34.1693C52.9156 34.5473 53.6659 35.0233 54.4722 35.391C54.7566 35.5158 55.1455 35.6546 54.9308 36.1197Z" fill="#6DB27D"/>
<path d="M54.9328 36.1197C54.929 35.7575 54.6383 35.664 54.3802 35.5348C53.121 34.9003 51.8564 34.2708 50.5971 33.6416C51.0302 33.3936 51.4634 33.1456 51.8966 32.8976C53.5047 33.6118 55.1686 34.2229 56.531 35.3855C55.9983 35.6302 55.4654 35.8802 54.9328 36.1197Z" fill="#68AE83"/>
<path d="M49.2923 34.3488C49.6772 34.9282 50.3442 35.0657 50.9059 35.3728C51.5451 35.7192 52.1954 36.045 52.8402 36.3759C53.0466 36.4824 53.1731 36.623 53.1705 36.859C52.6586 37.1097 52.1708 37.4241 51.5723 37.4358C50.16 36.8277 48.7586 36.2095 47.5254 35.2663C48.0833 34.8965 48.6707 34.5854 49.2923 34.3488Z" fill="#72B676"/>
<path d="M59.8989 33.7551C59.0308 33.0339 57.9844 32.6268 57.005 32.1012C56.376 31.7656 55.6096 31.6196 55.2397 30.9043C55.6201 30.6651 56.0005 30.4258 56.381 30.1866C57.8137 30.9684 59.2685 31.7143 60.7292 32.4447C60.9666 32.5627 61.2834 32.6624 61.197 33.053C60.799 33.3494 60.3562 33.5709 59.8989 33.7551Z" fill="#5EA595"/>
<path d="M61.1991 33.0529C61.0779 32.7499 60.7864 32.6825 60.5335 32.5535C59.3257 31.9522 58.1236 31.3353 56.9212 30.7289C56.6786 30.6107 56.49 30.4418 56.383 30.1865C56.6591 29.928 56.9651 29.7178 57.321 29.5879C57.8167 29.5098 58.1288 29.9084 58.5274 30.0737C59.6604 30.5571 60.7035 31.2212 61.825 31.7357C62.104 31.8656 62.3928 32.0168 62.5348 32.3258C62.4882 32.4659 62.5244 32.6403 62.3588 32.7292C61.8598 32.4294 61.6184 33.0668 61.1991 33.0529Z" fill="#5CA29A"/>
<path d="M62.5349 32.3259C60.8024 31.4082 59.003 30.609 57.3211 29.588C57.6822 29.3009 58.0182 28.9762 58.4744 28.8234C58.6702 29.2496 59.1082 29.3323 59.4746 29.5175C60.6667 30.1183 61.8534 30.7242 63.0455 31.325C63.2417 31.4206 63.4056 31.5415 63.4719 31.7588C63.1613 31.9479 62.8455 32.1368 62.5349 32.3259Z" fill="#59A09D"/>
<path d="M41.1939 40.8386C40.3483 41.0257 39.4974 41.2127 38.6467 41.3945C37.8176 40.9211 36.8443 40.6843 36.1766 39.933C36.8902 39.6155 37.632 39.3934 38.3833 39.2032C39.449 39.3433 40.2439 40.0569 41.1627 40.5123C41.2815 40.5687 41.3029 40.7163 41.1939 40.8386Z" fill="#9DD04B"/>
<path d="M45.4475 36.2835C45.8395 36.0131 46.2656 35.8173 46.7165 35.6696C47.711 36.2166 48.7947 36.604 49.75 37.2284C50.0119 37.3997 50.4916 37.489 50.2909 38.0071C49.7598 38.1994 49.2286 38.3969 48.6924 38.5891C47.8823 37.8592 46.8103 37.593 45.922 37.0075C45.6704 36.8417 45.2322 36.7643 45.4475 36.2835Z" fill="#7ABB6D"/>
<path d="M39.9667 38.6207C40.5382 38.3144 41.1438 38.0878 41.7636 37.9089C42.7642 38.2725 43.6305 38.8888 44.5804 39.3556C44.756 39.4401 44.8855 39.649 44.7048 39.8792C44.1463 40.1073 43.5688 40.2771 42.9733 40.3571C41.9861 39.7473 40.8039 39.4826 39.9667 38.6207Z" fill="#8EC859"/>
<path d="M45.446 36.2836C45.9232 37.0863 46.8374 37.2057 47.5578 37.6336C47.99 37.8892 48.5807 37.9559 48.6909 38.5892C48.2664 38.7325 47.8367 38.8757 47.4123 39.0191C46.5416 38.5339 45.6256 38.1521 44.7658 37.6567C44.467 37.4894 44.0622 37.3554 44.1622 36.8707C44.5541 36.6004 44.9854 36.41 45.446 36.2836Z" fill="#80BF67"/>
<path d="M39.9651 38.6207C40.9635 39.2099 42.1513 39.4642 42.9717 40.357C42.4021 40.6058 41.7951 40.7169 41.1928 40.8439C40.6458 40.2487 39.8436 40.0753 39.1915 39.6445C38.9346 39.4786 38.6504 39.3485 38.3824 39.2032C38.8891 38.9524 39.4101 38.744 39.9651 38.6207Z" fill="#95CC53"/>
<path d="M50.2906 38.0072C49.767 37.1819 48.8184 36.9932 48.0463 36.5427C47.5882 36.2757 46.9481 36.2755 46.7163 35.6697C46.954 35.4625 47.2209 35.3244 47.5271 35.2663C48.9114 35.9259 50.3016 36.5648 51.5739 37.4358C51.1965 37.7433 50.7509 37.8913 50.2906 38.0072Z" fill="#76B872"/>
<path d="M44.7026 39.879C44.6948 39.48 44.3672 39.3905 44.0878 39.2711C43.255 38.913 42.4499 38.5087 41.7614 37.9088C42.0893 37.673 42.4655 37.5595 42.8468 37.4515C43.1478 37.3932 43.4003 37.5327 43.6477 37.6668C44.3074 38.0244 44.9784 38.3614 45.6549 38.6881C45.9286 38.8178 46.325 38.8886 46.3051 39.3339C45.8124 39.6376 45.2574 39.761 44.7026 39.879Z" fill="#89C55F"/>
<path d="M32.4662 42.3341C30.6221 42.5722 28.8136 42.3655 27.0136 41.902C28.449 41.8078 29.7954 41.2332 31.2294 41.1809C31.8322 41.3582 32.337 41.6425 32.4662 42.3341Z" fill="#BCDD35"/>
<path d="M46.3038 39.334C45.2275 38.5639 43.9554 38.1598 42.8454 37.4568C43.2629 37.2083 43.6898 36.9915 44.1607 36.8707C44.5578 37.5554 45.3134 37.7115 45.9476 38.0473C46.4683 38.3268 47.0722 38.4674 47.4106 39.0243C47.059 39.1858 46.7072 39.3525 46.3038 39.334Z" fill="#84C263"/>
<path d="M36.1796 39.9331C37.0032 40.4115 37.9707 40.6639 38.6444 41.3944L37.0705 41.7097C36.9307 41.81 36.7725 41.8362 36.6063 41.7835C36.1475 41.5375 35.7165 41.2452 35.2356 41.0299C34.9564 40.9053 34.6517 40.7588 34.7334 40.3523C35.1917 40.1366 35.6835 40.0216 36.1796 39.9331Z" fill="#A5D443"/>
<path d="M32.4654 42.3338C32.1565 41.8357 31.6299 41.5769 31.2285 41.1807C31.8495 40.9651 32.4878 40.8603 33.1309 40.7714C33.768 40.8606 34.1989 41.3156 34.6913 41.6571C34.8503 41.7673 35.0783 42.011 34.6897 42.1818C33.9518 42.2833 33.2132 42.4058 32.4654 42.3338Z" fill="#B4DA39"/>
<path d="M34.6903 42.182C34.8768 41.7789 34.518 41.6831 34.2908 41.5706C33.8677 41.3573 33.5049 41.062 33.1368 40.7717C33.6431 40.5314 34.1962 40.4657 34.7351 40.3524C34.8931 40.8088 35.3648 40.8244 35.6989 41.0348C36.0069 41.2391 36.4299 41.3003 36.5952 41.694C36.6809 41.8018 36.6779 41.8909 36.5599 41.9709C35.9385 42.0396 35.3117 42.1133 34.6903 42.182Z" fill="#ACD73E"/>
<path d="M71.7255 25.5624C71.4847 25.2292 71.122 25.0913 70.7655 24.9221C69.4746 24.297 68.1897 23.6459 66.91 22.995C66.7811 22.9278 66.6916 22.778 66.5903 22.6697C67.0758 22.266 67.5613 21.8623 68.0521 21.4588C69.5902 22.2284 71.0832 23.091 72.6493 23.8039C72.8352 23.894 73.0429 23.9585 73.1627 24.1461C72.7462 24.6832 72.2435 25.1283 71.7255 25.5624Z" fill="#4D8EB8"/>
<path d="M73.161 24.1463C72.5498 24.0683 72.0357 23.747 71.5041 23.4829C70.5905 23.0277 69.6769 22.5725 68.78 22.0864C68.5017 21.9356 68.0938 21.8958 68.0503 21.4642C68.531 21.0499 69.0167 20.6409 69.5026 20.2268C69.7838 20.9234 70.516 20.9948 71.0568 21.3012C72.1023 21.8919 73.2034 22.39 74.277 22.924C73.9629 23.3805 73.572 23.7768 73.161 24.1463Z" fill="#4D8CBC"/>
<path d="M177.013 62.3597C176.648 62.4274 176.273 62.5837 176.06 62.3285C175.575 61.7347 175.164 61.9482 174.627 62.2607C174.086 62.5732 173.445 62.6149 172.805 62.4795C172.221 62.3649 171.758 62.0889 171.596 61.5107C171.424 60.891 171.424 60.2399 171.956 59.7712C172.482 59.3024 172.752 58.9326 172.237 58.2087C171.768 57.5524 172.06 56.8024 172.68 56.4639C173.367 56.0941 174.341 56.2399 174.763 56.7764C175.19 57.318 175.122 58.1722 174.456 58.641C173.763 59.1305 173.987 59.4587 174.476 59.8597C174.596 59.9587 174.7 60.0732 174.815 60.1826C175.534 60.8493 175.586 60.8545 175.877 59.943C175.997 59.5732 176.164 59.3597 176.513 59.4951C176.956 59.667 176.627 60.042 176.523 60.1826C175.846 61.0889 176.133 61.7555 177.013 62.3597Z" fill="#464444"/>
<path d="M217.637 57.8129C217.975 57.8129 218.319 57.8077 218.658 57.8129C218.835 57.8181 219.048 57.7973 219.053 58.0629C219.064 58.2556 218.949 58.365 218.767 58.3546C218.314 58.3286 218.387 58.5109 218.486 58.8494C218.803 59.9952 218.184 60.7921 216.986 60.865C216.829 60.8702 216.668 60.8494 216.517 60.8859C216.272 60.9484 216.09 61.1098 216.126 61.3806C216.163 61.6306 216.371 61.6775 216.6 61.6827C217.069 61.6984 217.538 61.6984 218.001 61.7609C218.543 61.8286 218.928 62.1306 219.012 62.6931C219.09 63.2504 218.939 63.7556 218.423 64.0369C217.486 64.5525 216.48 64.6411 215.496 64.1984C214.694 63.8442 214.579 62.9015 215.272 62.3546C215.579 62.1098 215.694 61.9327 215.465 61.5994C215.449 61.5838 215.439 61.5421 215.449 61.5265C216.048 60.7973 215.288 60.24 215.199 59.6046C215.048 58.5473 215.637 57.8181 216.704 57.7609C217.012 57.7452 217.329 57.7609 217.637 57.7609V57.8129Z" fill="#464444"/>
<path d="M227.044 58.7086C227.044 59.3075 227.012 59.9065 227.049 60.5055C227.106 61.4221 227.643 61.8753 228.606 61.87C229.549 61.87 230.106 61.3961 230.137 60.4794C230.169 59.2815 230.137 58.0836 230.148 56.8909C230.148 56.6565 230.049 56.3544 230.486 56.344C230.945 56.3336 230.903 56.62 230.903 56.9065C230.898 58.0523 230.924 59.1982 230.893 60.3388C230.856 61.7294 230.08 62.4794 228.684 62.5471C227.314 62.6096 226.419 61.9013 226.325 60.5263C226.236 59.2867 226.288 58.0315 226.273 56.7867C226.268 56.5159 226.32 56.3544 226.648 56.344C227.054 56.3284 227.044 56.5627 227.038 56.8388C227.033 57.4638 227.038 58.0836 227.038 58.7086H227.044Z" fill="#464444"/>
<path d="M96.0127 59.3908C96.0127 58.5888 96.044 57.7815 96.0023 56.9794C95.9763 56.4481 96.169 56.3023 96.669 56.344C97.2888 56.3908 97.9138 56.3023 98.5283 56.469C99.3825 56.6981 99.7836 57.1408 99.8461 57.9794C99.9033 58.7398 99.419 59.6304 98.7992 59.9013C98.4346 60.0627 98.044 60.1773 97.6586 60.1148C96.8408 59.995 96.6794 60.3856 96.7731 61.0783C96.8096 61.3596 96.7783 61.6513 96.7783 61.9377C96.7731 62.1877 96.8356 62.4533 96.4138 62.4533C96.0283 62.4533 96.0075 62.245 96.0127 61.9585C96.0179 61.1044 96.0127 60.245 96.0127 59.3908ZM123.247 58.1825C123.565 58.0471 123.815 57.9013 124.08 57.8231C125.33 57.469 126.231 58.12 126.247 59.3908C126.258 60.2502 126.252 61.1096 126.247 61.969C126.242 62.1877 126.32 62.4429 125.929 62.4533C125.549 62.4585 125.513 62.2554 125.518 61.9638C125.523 61.1304 125.513 60.2971 125.513 59.4638C125.513 58.8388 125.294 58.4065 124.58 58.3804C123.841 58.3544 123.346 58.7138 123.294 59.4273C123.237 60.2294 123.268 61.0419 123.247 61.844C123.242 62.1044 123.367 62.4325 122.883 62.4533C122.403 62.4742 122.487 62.1617 122.487 61.8908C122.487 60.12 122.481 58.3492 122.487 56.5835C122.487 56.3179 122.388 55.9898 122.872 56.0054C123.341 56.0158 123.242 56.3388 123.247 56.6096C123.258 57.12 123.247 57.6304 123.247 58.1825Z" fill="#464444"/>
<path d="M121.705 62.3701C121.148 62.5524 120.799 62.4274 120.523 61.9899C120.262 61.568 119.945 61.1878 119.637 60.7972C119.533 60.667 119.445 60.417 119.242 60.5003C119.038 60.5888 118.851 60.7555 118.861 61.0368C118.872 61.3753 118.856 61.7138 118.861 62.0524C118.867 62.292 118.814 62.443 118.523 62.4534C118.221 62.4586 118.111 62.3493 118.111 62.0472C118.122 60.1722 118.122 58.3024 118.111 56.4326C118.111 56.1409 118.2 56.0003 118.512 56.0055C118.861 56.0159 118.861 56.2347 118.861 56.4795V59.9326C119.794 59.2347 120.096 57.8545 121.575 57.7659C121.184 58.5211 120.554 58.917 120.158 59.5107C119.913 59.8753 119.95 60.0732 120.184 60.3753C120.7 61.0211 121.184 61.6826 121.705 62.3701Z" fill="#464444"/>
<path d="M140.455 61.5992C141.017 61.7503 141.575 61.9065 142.153 61.8701C142.684 61.8388 143.231 61.7971 143.377 61.1409C143.528 60.4586 143.096 60.1461 142.544 59.9273C141.95 59.693 141.366 59.469 140.919 58.943C140.09 57.9794 140.439 56.6721 141.663 56.3648C142.34 56.1982 143.007 56.2815 143.663 56.4742C143.924 56.5471 144.007 56.6825 143.929 56.9273C143.846 57.1773 143.695 57.2294 143.45 57.1357C143.085 56.995 142.7 56.9378 142.304 56.9534C141.835 56.9794 141.398 57.0628 141.273 57.5992C141.153 58.1409 141.398 58.5003 141.887 58.7242C142.445 58.9742 143.007 59.193 143.507 59.5836C144.09 60.0367 144.215 60.5784 144.122 61.2346C144.038 61.844 143.622 62.193 143.075 62.3805C142.309 62.6357 141.528 62.5784 140.762 62.3961C140.304 62.2919 140.309 61.9742 140.455 61.5992Z" fill="#464444"/>
<path d="M245.611 60.3962C245.35 60.3962 245.09 60.391 244.83 60.3962C244.08 60.4014 243.975 60.5785 244.335 61.2399C244.663 61.8285 245.304 62.0003 246.361 61.8128C246.554 61.7816 246.861 61.417 246.96 61.9118C247.043 62.318 246.705 62.3597 246.434 62.4378C245.293 62.7451 244.205 62.4222 243.715 61.6253C243.179 60.7712 243.278 59.1358 243.913 58.3805C244.449 57.7399 245.522 57.5524 246.267 57.9639C246.913 58.318 247.397 59.4743 247.194 60.1358C247.126 60.3597 246.975 60.3962 246.783 60.3962C246.392 60.391 246.001 60.3962 245.611 60.3962ZM186.47 60.3962C186.215 60.3962 185.949 60.391 185.689 60.3962C184.991 60.4014 184.887 60.5785 185.22 61.2087C185.543 61.8128 186.194 62.0003 187.231 61.8233C187.434 61.7868 187.731 61.4326 187.856 61.8805C187.981 62.318 187.6 62.3701 187.298 62.443C186.168 62.7295 185.137 62.4222 184.637 61.6566C184.09 60.8076 184.163 59.1878 184.793 58.4118C185.324 57.7555 186.376 57.5472 187.142 57.9483C187.804 58.2972 188.272 59.3701 188.106 60.0993C188.038 60.3805 187.866 60.3962 187.647 60.3962C187.257 60.391 186.861 60.3962 186.47 60.3962ZM166.908 60.3962C166.673 60.3962 166.434 60.3753 166.205 60.4014C165.96 60.4222 165.621 60.2555 165.501 60.5264C165.387 60.7868 165.559 61.0837 165.72 61.3233C166.236 62.0837 166.991 61.8597 167.71 61.8128C167.892 61.7972 168.152 61.443 168.272 61.8805C168.361 62.2139 168.126 62.3285 167.856 62.4222C166.777 62.7712 165.564 62.4378 165.043 61.641C164.491 60.7972 164.616 59.0472 165.277 58.3285C165.809 57.7451 166.804 57.5733 167.517 57.9326C168.215 58.2868 168.663 59.2712 168.512 60.068C168.46 60.3389 168.319 60.3962 168.085 60.3962C167.689 60.391 167.298 60.3962 166.908 60.3962Z" fill="#464444"/>
<path d="M193.834 58.2606C194.386 57.9273 194.876 57.7085 195.444 57.7606C196.324 57.844 196.814 58.2554 196.86 59.1252C196.918 60.0835 196.876 61.0523 196.886 62.0106C196.886 62.2867 196.829 62.4481 196.501 62.4533C196.136 62.4533 196.157 62.2346 196.157 61.995C196.157 61.1356 196.157 60.2763 196.152 59.4169C196.152 58.8127 195.902 58.4117 195.241 58.3856C194.605 58.3596 194.105 58.5471 193.949 59.245C193.751 60.12 193.866 61.0054 193.829 61.8908C193.819 62.12 193.944 62.4377 193.501 62.4481C193.064 62.4585 193.152 62.1565 193.152 61.9117C193.147 60.1148 193.147 58.3179 193.152 56.521C193.152 56.3023 193.084 56.0367 193.454 56.0106C193.866 55.9898 193.834 56.2658 193.834 56.5263V58.2606ZM153.215 60.396C152.949 60.396 152.689 60.3908 152.428 60.396C151.751 60.4013 151.657 60.5523 151.944 61.1565C152.267 61.8231 152.886 62.0106 153.996 61.8231C154.183 61.7867 154.485 61.4169 154.605 61.896C154.704 62.2867 154.392 62.3596 154.105 62.4377C152.944 62.7398 151.886 62.4377 151.366 61.646C150.845 60.8544 150.918 59.2138 151.501 58.4533C152.043 57.7502 153.121 57.5315 153.907 57.9638C154.574 58.3335 155.011 59.4325 154.803 60.146C154.73 60.3908 154.574 60.3908 154.386 60.3908C153.996 60.396 153.605 60.396 153.215 60.396Z" fill="#464444"/>
<path d="M116.82 60.6147V62.0939C116.825 62.5106 116.408 62.5574 116.335 62.3752C116.064 61.6824 115.82 62.2085 115.575 62.3387C114.492 62.9168 113.242 62.3595 113.216 61.2762C113.2 60.6929 113.45 60.2762 113.992 60.047C114.429 59.8595 114.887 59.797 115.361 59.7814C115.648 59.771 116.085 59.9793 116.08 59.3804C116.08 58.8543 115.955 58.4533 115.351 58.3804C114.971 58.3335 114.622 58.4377 114.283 58.5679C114.07 58.6512 113.924 58.7189 113.799 58.422C113.674 58.1147 113.872 58.0679 114.059 57.9793C115.648 57.2345 116.82 57.9533 116.82 59.6772C116.825 59.9897 116.82 60.3022 116.82 60.6147Z" fill="#464444"/>
<path d="M221.336 61.521C221.857 60.5158 222.076 59.5054 222.424 58.5418C222.482 58.37 222.549 58.2033 222.622 58.0366C222.747 57.745 223.013 57.7762 223.227 57.8335C223.607 57.9325 223.315 58.1825 223.268 58.3283C222.68 59.9637 222.091 61.5991 221.466 63.2189C221.112 64.1356 220.529 64.521 219.779 64.4533C219.544 64.4325 219.279 64.4325 219.273 64.1043C219.263 63.771 219.513 63.8595 219.716 63.8387C220.654 63.7345 221.159 62.8647 220.815 61.9585C220.372 60.797 219.919 59.6356 219.487 58.4689C219.414 58.2658 219.096 57.9897 219.518 57.8387C219.841 57.7189 220.044 57.9012 220.159 58.2293C220.529 59.297 220.919 60.3595 221.336 61.521ZM262.076 61.6408C262.487 60.4168 262.852 59.3647 263.195 58.3022C263.305 57.9585 263.482 57.6929 263.857 57.8387C264.305 58.0158 263.951 58.3283 263.878 58.547C263.32 60.1147 262.742 61.672 262.159 63.2293C261.878 63.9741 261.388 64.4689 260.534 64.4533C260.31 64.4481 260.023 64.4637 259.992 64.1356C259.951 63.7345 260.258 63.87 260.471 63.8439C261.336 63.7241 261.841 62.8179 261.518 61.9793C261.06 60.7918 260.591 59.6095 260.154 58.4116C260.096 58.2502 259.763 57.9845 260.143 57.8387C260.424 57.7345 260.701 57.8127 260.826 58.1668C261.211 59.2658 261.612 60.3595 262.076 61.6408ZM212.211 57.7554C213.539 57.7554 214.289 58.646 214.284 60.2241C214.279 61.646 213.466 62.5522 212.211 62.547C210.961 62.5366 210.133 61.6095 210.128 60.2137C210.128 58.6356 210.872 57.7554 212.211 57.7554ZM207.159 60.2241C207.159 61.6772 206.398 62.5366 205.112 62.547C203.852 62.5522 203.055 61.6512 203.055 60.2241C203.055 58.6095 203.768 57.7554 205.112 57.7554C206.451 57.7554 207.164 58.6147 207.159 60.2241Z" fill="#464444"/>
<path d="M232.268 60.094C232.268 59.469 232.262 58.844 232.268 58.219C232.273 57.8127 232.627 57.6409 232.799 57.9065C233.096 58.3648 233.236 58.1252 233.523 57.9638C234.762 57.2919 236.002 57.9794 236.065 59.3857C236.106 60.2398 236.07 61.0992 236.08 61.9586C236.08 62.2502 236.054 62.4586 235.669 62.4534C235.283 62.4482 235.346 62.193 235.346 61.9742C235.341 61.1409 235.351 60.3075 235.341 59.4742C235.33 58.8596 235.106 58.4013 234.398 58.3857C233.721 58.37 233.236 58.5888 233.106 59.3388C232.955 60.193 233.07 61.0523 233.023 61.9065C233.012 62.1461 233.122 62.443 232.679 62.4534C232.226 62.4638 232.262 62.1825 232.262 61.8909C232.268 61.2919 232.262 60.693 232.268 60.094Z" fill="#464444"/>
<path d="M112.169 60.2086C112.169 60.8336 112.163 61.4534 112.169 62.0784C112.174 62.5576 111.679 62.5368 111.622 62.3805C111.403 61.7972 111.179 62.219 110.981 62.3232C109.611 63.0055 108.413 62.3076 108.398 60.8076C108.387 59.9795 108.403 59.1461 108.393 58.3128C108.393 58.0211 108.429 57.7972 108.809 57.818C109.153 57.8336 109.143 58.068 109.143 58.3128C109.143 59.1409 109.158 59.9743 109.137 60.8024C109.122 61.4482 109.377 61.8597 110.044 61.9378C110.736 62.0211 111.309 61.6097 111.367 60.917C111.429 60.0888 111.398 59.2555 111.413 58.4274C111.413 58.1461 111.346 57.8232 111.794 57.8128C112.273 57.8024 112.163 58.1513 112.163 58.417C112.179 59.0159 112.169 59.6097 112.169 60.2086ZM198.215 60.1409V58.2763C198.215 58.094 198.189 57.8909 198.429 57.8336C198.622 57.7868 198.788 57.8076 198.835 58.0576C198.903 58.4118 199.07 58.1982 199.205 58.1045C199.653 57.7815 200.158 57.6982 200.689 57.7711C201.424 57.8701 201.903 58.2815 201.939 59.0368C201.986 60.0472 201.95 61.0628 201.96 62.0732C201.96 62.3232 201.898 62.4482 201.617 62.4534C201.288 62.4586 201.226 62.292 201.226 62.0159C201.231 61.1878 201.221 60.3545 201.231 59.5263C201.231 58.8753 201.054 58.4013 200.283 58.3805C199.538 58.3649 199.059 58.7086 199.007 59.4378C198.945 60.2659 198.971 61.0993 198.96 61.9274C198.955 62.1878 199.002 62.4534 198.59 62.4534C198.179 62.4534 198.215 62.1982 198.215 61.9378V60.1409Z" fill="#464444"/>
<path d="M104.173 60.5054C104.173 61.0263 104.168 61.5471 104.173 62.0679C104.178 62.4377 103.861 62.6044 103.725 62.3596C103.439 61.8544 103.256 62.1617 102.991 62.3075C102.543 62.5523 102.064 62.6044 101.559 62.4846C100.97 62.344 100.668 61.969 100.595 61.4013C100.517 60.8231 100.746 60.3804 101.256 60.1044C101.725 59.8544 102.241 59.7971 102.772 59.7815C103.064 59.7763 103.506 59.9585 103.491 59.37C103.47 58.8908 103.34 58.4898 102.798 58.3908C102.402 58.3179 102.017 58.4169 101.652 58.5679C101.423 58.6617 101.267 58.6929 101.178 58.4065C101.111 58.1773 101.22 58.0731 101.413 58.0002C102.064 57.7554 102.715 57.6513 103.392 57.8856C103.902 58.0627 104.137 58.4377 104.163 58.9481C104.184 59.469 104.168 59.9898 104.168 60.5054H104.173Z" fill="#464444"/>
<path d="M130.82 60.5315C130.82 61.0471 130.825 61.568 130.82 62.0888C130.814 62.2086 130.851 62.3649 130.689 62.4169C130.533 62.4638 130.356 62.4794 130.299 62.2867C130.179 61.8961 130.018 62.0576 129.809 62.2086C129.34 62.5524 128.809 62.5992 128.247 62.4846C127.658 62.3701 127.346 62.0003 127.262 61.4274C127.184 60.8544 127.387 60.4013 127.898 60.1201C128.361 59.8596 128.877 59.8024 129.408 59.7815C129.715 59.7659 130.21 59.9899 130.163 59.3388C130.127 58.8232 129.955 58.4274 129.356 58.3753C128.976 58.344 128.632 58.443 128.288 58.5732C128.096 58.6461 127.955 58.693 127.851 58.4586C127.736 58.193 127.866 58.0732 128.09 57.9899C128.637 57.7815 129.2 57.6878 129.773 57.8024C130.445 57.9378 130.825 58.3388 130.82 59.0471V60.5315Z" fill="#464444"/>
<path d="M155.892 60.1462V58.2712C155.887 57.8285 156.205 57.6201 156.444 57.9378C156.726 58.3181 156.851 58.1201 157.095 57.9951C158.47 57.2816 159.647 57.9691 159.663 59.4899C159.673 60.3233 159.663 61.1566 159.663 61.9899C159.663 62.2295 159.679 62.4535 159.314 62.4483C158.939 62.4431 158.981 62.2035 158.981 61.9691C158.976 61.1618 158.986 60.3545 158.97 59.5472C158.955 58.9274 158.788 58.4118 158.012 58.3806C157.236 58.3493 156.767 58.7035 156.7 59.5003C156.632 60.3024 156.653 61.1097 156.637 61.917C156.632 62.1722 156.694 62.4483 156.278 62.4535C155.871 62.4587 155.887 62.2139 155.892 61.9431C155.897 61.3389 155.892 60.7451 155.892 60.1462Z" fill="#464444"/>
<path d="M181.164 59.745V58.0262C181.164 57.0054 181.164 57.0054 180.175 57.0054C179.992 57.0054 179.81 57.0002 179.628 57.0002C179.409 57.0054 179.294 56.9116 179.289 56.6772C179.284 56.4429 179.393 56.3491 179.617 56.3491C180.899 56.3543 182.175 56.3543 183.456 56.3491C183.685 56.3491 183.779 56.4429 183.779 56.6772C183.774 56.9064 183.68 57.0106 183.451 57.0002C183.425 57.0002 183.399 57.0002 183.373 57.0054C182.914 57.0522 182.305 56.7866 182.029 57.1356C181.722 57.521 181.94 58.1408 181.93 58.6564C181.909 59.7502 181.925 60.8439 181.925 61.9377C181.925 62.1981 181.966 62.4585 181.55 62.4533C181.143 62.4533 181.164 62.2033 181.164 61.9325V59.745Z" fill="#464444"/>
<path d="M253.148 57.7553C253.451 57.7345 253.779 57.8126 254.102 57.9168C254.268 57.9637 254.492 57.9793 254.393 58.2605C254.32 58.4741 254.201 58.6251 253.935 58.5366C253.586 58.4272 253.232 58.3439 252.862 58.3751C252.539 58.4064 252.185 58.4324 252.128 58.8126C252.076 59.1616 252.237 59.4793 252.586 59.6355C252.987 59.8178 253.404 59.9637 253.81 60.146C254.336 60.3855 254.622 60.7918 254.56 61.3855C254.503 61.9793 254.117 62.2918 253.565 62.4428C252.997 62.5991 252.43 62.5574 251.862 62.4376C251.544 62.3699 251.3 62.2137 251.414 61.8595C251.534 61.4897 251.794 61.7762 251.987 61.8074C252.393 61.8855 252.794 62.021 253.216 61.896C253.497 61.8074 253.789 61.7397 253.846 61.396C253.898 61.0522 253.675 60.8595 253.414 60.7241C253.138 60.5835 252.841 60.4741 252.555 60.3543C251.596 59.9585 251.237 59.4741 251.383 58.771C251.518 58.1043 252.133 57.7449 253.148 57.7553Z" fill="#464444"/>
<path d="M240.924 61.5628C241.294 60.4639 241.669 59.391 242.023 58.3076C242.132 57.9743 242.299 57.6983 242.674 57.8337C243.143 58.0003 242.783 58.318 242.71 58.5316C242.309 59.6826 241.882 60.818 241.471 61.9639C241.367 62.2503 241.273 62.4535 240.893 62.4639C240.481 62.4743 240.361 62.2608 240.247 61.9483C239.825 60.7555 239.382 59.568 238.96 58.3701C238.903 58.2087 238.643 57.9639 238.95 57.8441C239.21 57.7451 239.518 57.7608 239.637 58.141C239.898 58.9274 240.163 59.7087 240.45 60.4847C240.585 60.8389 240.611 61.2451 240.924 61.5628Z" fill="#464444"/>
<path d="M161.518 60.2398C161.518 61.5523 162.075 62.0158 163.382 61.8388C163.554 61.8127 163.84 61.4898 163.95 61.9013C164.044 62.2554 163.809 62.3856 163.481 62.4638C161.992 62.8388 160.877 62.0575 160.752 60.5315C160.59 58.521 161.882 57.3023 163.585 57.8492C163.752 57.9013 164.044 57.87 163.945 58.219C163.861 58.5002 163.705 58.5992 163.424 58.5054C162.033 58.0263 161.476 59.0315 161.518 60.2398Z" fill="#464444"/>
<path d="M257.756 60.1149C257.756 59.7035 257.767 59.2868 257.756 58.8701C257.751 58.7191 257.736 58.4535 257.678 58.4378C256.376 58.1514 257.532 57.9795 257.694 57.7347C257.819 57.5472 257.866 57.3076 257.949 57.0889C258.012 56.9378 258.09 56.8076 258.288 56.8337C258.506 56.8597 258.506 57.042 258.486 57.1878C258.392 57.8232 258.782 57.8389 259.241 57.818C259.459 57.8076 259.756 57.7503 259.767 58.1097C259.772 58.5055 259.439 58.3962 259.251 58.3753C258.637 58.292 258.423 58.5264 258.48 59.141C258.532 59.7607 258.491 60.391 258.491 61.0107C258.491 61.6357 258.72 62.0316 259.428 61.917C259.616 61.8857 259.788 61.818 259.798 62.1149C259.808 62.3389 259.704 62.417 259.501 62.4847C258.626 62.7764 257.829 62.2816 257.767 61.3649C257.741 60.9482 257.762 60.5316 257.762 60.1149H257.756Z" fill="#464444"/>
<path d="M105.575 60.0211V58.9325C105.575 58.7971 105.533 58.6617 105.565 58.5419C105.643 58.2398 104.273 58.5159 105.299 57.9013C105.716 57.6565 105.643 57.219 105.872 56.9273C105.919 56.8596 106.049 56.8336 106.143 56.8388C106.315 56.8492 106.335 57.0054 106.315 57.1304C106.236 57.6773 106.46 57.8804 107.012 57.8232C107.226 57.7971 107.601 57.6825 107.58 58.12C107.565 58.5627 107.184 58.3909 106.981 58.37C106.398 58.3075 106.278 58.5627 106.309 59.0836C106.356 59.7294 106.33 60.3857 106.32 61.0367C106.309 61.6409 106.559 61.9794 107.205 61.9273C107.372 61.9117 107.565 61.7815 107.596 62.0992C107.622 62.3804 107.466 62.4429 107.236 62.5002C106.356 62.7242 105.643 62.2502 105.58 61.3492C105.549 60.9117 105.575 60.4638 105.575 60.0211Z" fill="#464444"/>
<path d="M147.226 61.8701C147.294 61.8597 147.476 61.818 147.658 61.8232C147.825 61.8284 148.065 61.5315 148.158 61.9065C148.231 62.219 148.07 62.3649 147.762 62.4586C146.257 62.917 145.039 62.0055 144.971 60.344C144.887 58.4482 146.111 57.3545 147.773 57.8388C147.986 57.9013 148.273 57.9065 148.158 58.2711C148.065 58.5784 147.851 58.5732 147.601 58.4951C146.903 58.2763 146.289 58.3753 145.929 59.068C145.544 59.8128 145.7 61.1357 146.169 61.5888C146.434 61.844 146.768 61.8857 147.226 61.8701ZM188.945 60.1982C188.955 58.3701 190.049 57.4013 191.648 57.8128C191.877 57.8753 192.21 57.8805 192.091 58.292C191.986 58.6305 191.747 58.542 191.523 58.4795C190.919 58.2972 190.372 58.3649 189.976 58.8961C189.606 59.3857 189.617 60.844 189.955 61.3805C190.341 61.9742 190.919 61.8701 191.502 61.8493C191.684 61.844 192.012 61.4534 192.101 61.9586C192.169 62.3493 191.877 62.4065 191.575 62.4743C189.971 62.8232 188.94 61.9378 188.945 60.1982Z" fill="#464444"/>
<path d="M209.012 59.2399C209.012 60.1461 209.018 61.0576 209.012 61.9638C209.012 62.1774 209.091 62.443 208.705 62.4534C208.341 62.4638 208.273 62.292 208.273 61.9795C208.283 60.167 208.278 58.3545 208.278 56.5367C208.278 56.2815 208.247 56.0159 208.648 56.0003C209.064 55.9899 209.012 56.2659 209.012 56.5211C209.018 57.4274 209.012 58.3336 209.012 59.2399ZM132.934 59.2086C132.934 60.1149 132.939 61.0211 132.934 61.9274C132.934 62.1878 132.976 62.4482 132.564 62.4534C132.143 62.4638 132.2 62.193 132.2 61.9378C132.2 60.1253 132.2 58.3128 132.205 56.4951C132.205 56.2815 132.127 56.0159 132.512 56.0055C132.877 55.9899 132.939 56.1826 132.939 56.4847C132.929 57.3909 132.934 58.3024 132.934 59.2086Z" fill="#464444"/>
<path d="M249.053 58.4168C249.449 58.0105 249.882 57.698 250.486 57.7553C250.673 57.771 250.861 57.771 250.85 58.0366C250.845 58.2657 250.783 58.4376 250.491 58.4168C249.439 58.3491 249.059 59.073 248.996 60.0939C248.954 60.7397 248.986 61.3907 248.986 62.0418C248.986 62.2553 248.996 62.4532 248.673 62.4532C248.387 62.4532 248.246 62.3699 248.246 62.0574C248.257 60.7866 248.251 59.5157 248.251 58.2449C248.251 58.021 248.288 57.8335 248.574 57.8126C249.012 57.7866 248.85 58.2345 249.053 58.4168Z" fill="#464444"/>
<path d="M237.376 60.1044V58.2294C237.376 58.0159 237.381 57.8127 237.688 57.8075C237.985 57.8023 238.121 57.9273 238.116 58.2242C238.116 59.5002 238.11 60.7711 238.121 62.0471C238.121 62.3492 238.001 62.4534 237.704 62.4534C237.392 62.4534 237.376 62.2815 237.376 62.0523C237.381 61.4013 237.376 60.7502 237.376 60.1044ZM255.579 60.1252C255.579 59.5263 255.584 58.9273 255.579 58.3336C255.574 58.0523 255.59 57.8023 255.975 57.8075C256.303 57.8179 256.334 58.0211 256.334 58.2815C256.329 59.5315 256.329 60.7815 256.334 62.0315C256.34 62.3127 256.261 62.4586 255.944 62.4534C255.6 62.4534 255.579 62.2554 255.579 62.0002C255.584 61.3752 255.579 60.7502 255.579 60.1252ZM134.256 60.1044C134.256 59.4794 134.261 58.8544 134.256 58.2294C134.251 57.9377 134.371 57.7971 134.668 57.8127C134.949 57.8232 135.011 57.9898 135.011 58.2242C135.006 59.5002 135.001 60.7763 135.011 62.0523C135.017 62.3596 134.892 62.4586 134.595 62.4534C134.303 62.4482 134.251 62.2971 134.256 62.0523C134.261 61.4065 134.256 60.7554 134.256 60.1044ZM149.902 60.0784C149.902 60.6773 149.902 61.2763 149.897 61.8752C149.897 62.1461 149.98 62.469 149.506 62.4534C149.09 62.4482 149.147 62.1721 149.147 61.9169C149.147 60.7242 149.152 59.5263 149.147 58.3284C149.147 58.0471 149.157 57.8023 149.543 57.8127C149.938 57.8232 149.902 58.1044 149.902 58.3648V60.0784Z" fill="#464444"/>
<path d="M255.928 56.2034C256.225 56.2398 256.366 56.3857 256.366 56.6617C256.361 56.8961 256.267 57.0732 256.027 57.1096C255.741 57.1461 255.605 56.9586 255.579 56.7034C255.548 56.4325 255.704 56.2815 255.928 56.2034ZM149.527 56.2034C149.798 56.2502 149.939 56.4013 149.928 56.6773C149.923 56.9117 149.819 57.0888 149.579 57.1096C149.298 57.1357 149.152 56.9638 149.142 56.693C149.126 56.4273 149.267 56.2607 149.527 56.2034Z" fill="#464444"/>
<path d="M134.627 57.1201C134.351 57.068 134.226 56.8961 134.246 56.6253C134.272 56.3649 134.418 56.1878 134.699 56.2242C134.939 56.2503 135.043 56.4274 135.038 56.6669C135.033 56.9378 134.903 57.094 134.627 57.1201Z" fill="#464444"/>
<path d="M238.164 56.6566C238.138 56.9222 238.029 57.1149 237.742 57.1149C237.498 57.1097 237.378 56.9483 237.362 56.7087C237.352 56.4483 237.44 56.2347 237.727 56.2191C238.013 56.2035 238.128 56.4066 238.164 56.6566Z" fill="#464444"/>
<path d="M173.277 61.8701C172.892 61.8545 172.423 61.7451 172.298 61.1357C172.173 60.5211 172.47 60.094 172.97 59.7815C173.048 59.7347 173.199 59.6826 173.241 59.7138C173.772 60.2034 174.308 60.6878 174.803 61.2086C174.939 61.3545 174.715 61.4586 174.595 61.542C174.241 61.7972 173.835 61.8649 173.277 61.8701Z" fill="white"/>
<path d="M172.794 57.7296C172.747 57.115 173.075 56.9014 173.497 56.8702C173.929 56.8442 174.257 57.0681 174.257 57.5577C174.257 58.0994 173.908 58.5264 173.439 58.5369C173.017 58.5525 172.856 58.0369 172.794 57.7296Z" fill="white"/>
<path d="M216.996 62.3909C217.126 62.3909 217.256 62.3805 217.387 62.3909C217.762 62.4221 218.225 62.318 218.288 62.8857C218.35 63.3961 218.006 63.6253 217.579 63.7607C217.126 63.9117 216.652 63.9117 216.194 63.8232C215.808 63.7451 215.532 63.5315 215.574 63.0732C215.621 62.6305 215.887 62.4378 216.293 62.4013C216.527 62.3857 216.762 62.4013 216.996 62.4013V62.3909ZM217.808 59.3492C217.85 59.9742 217.564 60.3076 216.902 60.3128C216.209 60.318 215.902 60.0107 215.907 59.318C215.918 58.6253 216.236 58.3128 216.918 58.3284C217.59 58.3388 217.84 58.7086 217.808 59.3492ZM97.3918 57.0003C98.7251 57.0159 99.2928 57.5888 99.0115 58.5107C98.8032 59.1826 97.522 59.844 96.9803 59.4534C96.5011 59.1044 96.8293 58.4482 96.7928 57.9378C96.7772 57.6409 96.5897 57.2398 96.9751 57.0315C97.1209 56.9534 97.3345 57.0055 97.3918 57.0003ZM245.225 59.7867C244.887 59.7242 244.376 59.9794 244.236 59.6513C244.084 59.2971 244.303 58.8388 244.678 58.5784C245.079 58.3128 245.501 58.2815 245.923 58.5367C246.34 58.7867 246.439 59.2242 246.35 59.6201C246.272 59.9638 245.866 59.7294 245.611 59.7815C245.491 59.8128 245.355 59.7867 245.225 59.7867ZM186.236 59.7867C186.095 59.7867 186.017 59.8023 185.939 59.7867C185.657 59.7294 185.189 59.9586 185.126 59.6253C185.043 59.1773 185.256 58.7242 185.746 58.4846C186.022 58.3492 186.303 58.3336 186.574 58.4169C187.095 58.5784 187.361 59.0107 187.251 59.4951C187.105 60.1201 186.517 59.6044 186.236 59.7867Z" fill="white"/>
<path d="M166.647 59.7866C166.501 59.7866 166.423 59.8022 166.345 59.7866C166.069 59.7241 165.606 59.9637 165.538 59.6199C165.46 59.2033 165.647 58.7554 166.1 58.5106C166.397 58.3491 166.71 58.3231 167.012 58.422C167.533 58.5887 167.793 59.0522 167.678 59.521C167.533 60.1252 166.934 59.6043 166.647 59.7866ZM153.001 59.7866C152.913 59.7866 152.887 59.7918 152.861 59.7866C152.522 59.7241 152.048 59.9793 151.866 59.6512C151.694 59.3491 151.923 58.9533 152.199 58.6824C152.548 58.3439 152.986 58.2762 153.423 58.4533C153.887 58.646 154.116 59.0783 153.991 59.5262C153.83 60.1043 153.277 59.6199 153.001 59.7866Z" fill="white"/>
<path d="M115.642 60.2869C116.007 60.2244 116.095 60.4327 116.079 60.7817C116.043 61.4588 115.496 61.9744 114.788 61.9432C114.329 61.9223 113.98 61.7452 113.98 61.2036C113.986 60.6098 114.585 60.2713 115.642 60.2869Z" fill="white"/>
<path d="M213.554 60.2294C213.549 60.5784 213.466 60.9065 213.336 61.2138C213.133 61.7034 212.721 61.9273 212.226 61.9325C211.726 61.9429 211.304 61.7294 211.096 61.245C210.763 60.4898 210.831 59.7138 211.138 58.9794C211.341 58.495 211.799 58.3596 212.31 58.3804C212.836 58.4117 213.206 58.6825 213.372 59.1617C213.487 59.495 213.497 59.87 213.554 60.2294Z" fill="white"/>
<path d="M206.403 60.0315C206.408 61.4065 205.851 62.068 204.939 61.9222C204.283 61.8232 203.924 61.4013 203.851 60.7711C203.804 60.3388 203.83 59.8909 203.882 59.4586C203.96 58.7711 204.377 58.3961 205.085 58.3857C205.788 58.3753 206.226 58.7555 206.34 59.4951C206.377 59.7242 206.392 59.9534 206.403 60.0315Z" fill="white"/>
<path d="M102.997 60.2868C103.252 60.266 103.513 60.2712 103.492 60.7139C103.466 61.3805 102.929 61.9378 102.231 61.943C101.726 61.9482 101.356 61.7451 101.346 61.1878C101.335 60.641 101.945 60.3076 102.997 60.2868ZM128.768 61.9482C128.382 61.891 128.013 61.7295 128.007 61.1982C128.002 60.6201 128.664 60.2764 129.658 60.2764C130.039 60.2764 130.169 60.4118 130.138 60.7764C130.085 61.4587 129.523 61.9743 128.768 61.9482Z" fill="white"/>
</g>
<defs>
<clipPath id="clip0_29_2">
<rect width="266" height="77" fill="white"/>
</clipPath>
</defs>
</svg>
